<?xml version="1.0" standalone="no"?>
<!DOCTYPE svg PUBLIC "-//W3C//DTD SVG 1.1//EN" "http://www.w3.org/Graphics/SVG/1.1/DTD/svg11.dtd" >
<svg xmlns="http://www.w3.org/2000/svg">
<metadata>
<json>
<![CDATA[
{
	"fontFamily": "Ohana-Icons",
	"majorVersion": 1,
	"minorVersion": 0,
	"version": "Version 1.0",
	"fontId": "Ohana-Icons",
	"psName": "Ohana-Icons",
	"subFamily": "Regular",
	"fullName": "Ohana-Icons",
	"description": "Font generated by IcoMoon."
}
]]>
</json>
</metadata>
<defs>
<font id="Ohana-Icons" horiz-adv-x="1024">
<font-face units-per-em="1024" ascent="960" descent="-64" />
<missing-glyph horiz-adv-x="1024" />
<glyph unicode="&#x20;" horiz-adv-x="512" d="" />
<glyph unicode="&#xe900;" glyph-name="a-down" data-tags="a-down" d="M527.839 324.9c-8.748-8.764-22.931-8.764-31.678 0l-355.682 356.353c-17.495 17.528-45.861 17.528-63.357 0s-17.495-45.948 0-63.476l401.616-402.374c18.37-18.405 48.154-18.405 66.525 0l401.616 402.374c17.495 17.528 17.495 45.948 0 63.476s-45.861 17.528-63.357 0l-355.682-356.353z" />
<glyph unicode="&#xe901;" glyph-name="a-left" data-tags="a-left" d="M388.9 432.161c-8.764 8.748-8.764 22.931 0 31.678l356.353 355.682c17.528 17.495 17.528 45.861 0 63.357s-45.948 17.495-63.476 0l-402.374-401.616c-18.405-18.37-18.405-48.154 0-66.525l402.374-401.616c17.528-17.495 45.948-17.495 63.476 0s17.528 45.861 0 63.357l-356.353 355.682z" />
<glyph unicode="&#xe902;" glyph-name="a-right" data-tags="a-right" d="M635.1 463.839c8.764-8.748 8.764-22.931 0-31.678l-356.353-355.682c-17.528-17.495-17.528-45.861 0-63.357s45.948-17.495 63.476 0l402.374 401.616c18.405 18.37 18.405 48.154 0 66.525l-402.374 401.616c-17.528 17.495-45.948 17.495-63.476 0s-17.528-45.861 0-63.357l356.353-355.682z" />
<glyph unicode="&#xe903;" glyph-name="a-up" data-tags="a-up" d="M496.161 571.143c8.748 8.768 22.931 8.77 31.678 0.003l355.682-356.555c17.495-17.544 45.861-17.55 63.357-0.012s17.495 45.978 0 63.522l-401.616 402.586c-18.37 18.408-48.154 18.402-66.525-0.013l-401.616-402.454c-17.495-17.526-17.495-45.945 0-63.477s45.861-17.538 63.357-0.012l355.682 356.411z" />
<glyph unicode="&#xe904;" glyph-name="airconditioner-copy" data-tags="airconditioner copy" d="M511.647 355.2c15.713 0 25.953-14.538 25.953-32.47v-152.66c0-17.934-10.24-32.47-25.953-32.47s-25.247 14.538-25.247 32.47v152.66c0 17.932 9.534 32.47 25.247 32.47zM705.947 216.103c16.596 0 30.051-10.209 30.053-26.55 0-16.339-13.455-26.353-30.051-26.353-61.040 0-97.949 42.621-97.949 102.712v59.703c0 16.339 10.197 29.585 23.581 29.585s23.774-13.247 23.774-29.585v-59.703c0-27.466 22.694-49.809 50.592-49.809zM318.053 216.103c27.898 0 50.592 22.343 50.592 49.809v59.703c0 16.339 10.39 29.585 23.774 29.585s23.581-13.247 23.581-29.585v-59.703c0-60.090-36.909-102.712-97.949-102.712-16.596 0-30.051 10.014-30.051 26.353 0.002 16.341 13.457 26.55 30.053 26.55zM921.6 457.6c0-24.742-20.058-44.8-44.8-44.8h-729.6c-24.742 0-44.8 20.058-44.8 44.8v57.6h819.2v-57.6zM848 483.2c-8.837 0-16-7.163-16-16s7.163-16 16-16h19.2c8.837 0 16 7.163 16 16s-7.163 16-16 16h-19.2zM764.8 483.2c-8.837 0-16-7.163-16-16s7.163-16 16-16h19.2c8.837 0 16 7.163 16 16s-7.163 16-16 16h-19.2zM147.2 758.4c-45.95 0-83.2-37.25-83.2-83.2v-217.6c0-45.95 37.25-83.2 83.2-83.2h729.6c45.95 0 83.2 37.25 83.2 83.2v217.6c0 45.95-37.25 83.2-83.2 83.2h-729.6z" />
<glyph unicode="&#xe905;" glyph-name="airconditioner" data-tags="airconditioner" d="M511.647 355.2c15.713 0 25.953-14.538 25.953-32.47v-152.66c0-17.934-10.24-32.47-25.953-32.47s-25.247 14.538-25.247 32.47v152.66c0 17.932 9.534 32.47 25.247 32.47zM705.947 216.103c16.596 0 30.051-10.209 30.053-26.55 0-16.339-13.455-26.353-30.051-26.353-61.040 0-97.949 42.621-97.949 102.712v59.703c0 16.339 10.197 29.585 23.581 29.585s23.774-13.247 23.774-29.585v-59.703c0-27.466 22.694-49.809 50.592-49.809zM318.053 216.103c27.898 0 50.592 22.343 50.592 49.809v59.703c0 16.339 10.39 29.585 23.774 29.585s23.581-13.247 23.581-29.585v-59.703c0-60.090-36.909-102.712-97.949-102.712-16.596 0-30.051 10.014-30.051 26.353 0.002 16.341 13.457 26.55 30.053 26.55zM147.2 720h729.6c24.742 0 44.8-20.058 44.8-44.8v-217.6c0-24.742-20.058-44.8-44.8-44.8h-729.6c-24.742 0-44.8 20.058-44.8 44.8v57.6h819.2v38.4h-819.2v121.6c0 24.742 20.058 44.8 44.8 44.8zM848 483.2c-8.837 0-16-7.163-16-16s7.163-16 16-16h19.2c8.837 0 16 7.163 16 16s-7.163 16-16 16h-19.2zM764.8 483.2c-8.837 0-16-7.163-16-16s7.163-16 16-16h19.2c8.837 0 16 7.163 16 16s-7.163 16-16 16h-19.2zM147.2 758.4c-45.95 0-83.2-37.25-83.2-83.2v-217.6c0-45.95 37.25-83.2 83.2-83.2h729.6c45.95 0 83.2 37.25 83.2 83.2v217.6c0 45.95-37.25 83.2-83.2 83.2h-729.6z" />
<glyph unicode="&#xe906;" glyph-name="back" data-tags="back" d="M216.128 414.836l268.578-269.361c14.205-14.246 14.205-37.344 0-51.591s-37.236-14.246-51.441 0l-326.079 327.030c-14.915 14.959-14.915 39.211 0 54.17l326.079 327.030c14.205 14.246 37.236 14.246 51.441 0s14.205-37.344 0-51.591l-268.578-269.361h678.592c18.38 0 33.28-14.848 33.28-33.164s-14.9-33.164-33.28-33.164h-678.592z" />
<glyph unicode="&#xe907;" glyph-name="bed-fill" data-tags="bed-fill" d="M780.8 96h-537.6v-57.6c0-3.535-2.865-6.4-6.4-6.4h-38.4c-3.535 0-6.4 2.865-6.4 6.4v57.6h-17.6c-21.208 0-38.4 17.192-38.4 38.4v116.958c0 3.091 0.224 6.177 0.67 9.236l55.33 379.406v128c0 53.019 42.981 96 96 96h448c53.019 0 96-42.981 96-96v-128l55.33-379.406c0.446-3.058 0.67-6.145 0.67-9.236v-116.958c0-21.208-17.192-38.4-38.4-38.4h-17.6v-57.6c0-3.535-2.865-6.4-6.4-6.4h-38.4c-3.535 0-6.4 2.865-6.4 6.4v57.6zM528 646.375v40.398c0 17.117 1.782 23.324 5.129 29.582s8.258 11.169 14.516 14.516c6.258 3.347 12.465 5.129 29.582 5.129h141.547c17.117 0 23.324-1.782 29.582-5.129s11.169-8.258 14.516-14.516c3.347-6.258 5.129-12.465 5.129-29.582v-45.546c10.558-0.387 21.224-0.797 32-1.228v109.956c0 28.529-2.97 38.874-8.548 49.303s-13.763 18.615-24.193 24.193c-10.43 5.578-20.775 8.548-49.303 8.548h-411.911c-28.529 0-38.874-2.97-49.303-8.548s-18.615-13.763-24.193-24.193c-5.578-10.43-8.548-20.775-8.548-49.303v-109.956c10.776 0.431 21.442 0.84 32 1.228v45.546c0 17.117 1.782 23.324 5.129 29.582s8.258 11.169 14.516 14.516c6.258 3.347 12.465 5.129 29.582 5.129h141.547c17.117 0 23.324-1.782 29.582-5.129s11.169-8.258 14.516-14.516c3.347-6.258 5.129-12.465 5.129-29.582v-40.398c5.374 0.016 10.708 0.025 16 0.025s10.626-0.008 16-0.025zM233.756 608.61c-9.335-0.345-17.067-7.36-18.317-16.618l-41.040-303.992c54.4 4.267 166.933 6.4 337.6 6.4s283.2-2.133 337.6-6.4l-41.039 303.992c-1.25 9.259-8.983 16.275-18.319 16.62-104.328 3.858-197.075 5.788-278.242 5.788s-173.915-1.93-278.244-5.79z" />
<glyph unicode="&#xe908;" glyph-name="bed" data-tags="bed" d="M780.8 96h-537.6v-57.6c0-3.535-2.865-6.4-6.4-6.4h-38.4c-3.535 0-6.4 2.865-6.4 6.4v57.6h-17.6c-21.208 0-38.4 17.192-38.4 38.4v116.958c0 3.091 0.224 6.177 0.67 9.236l55.33 379.406v128c0 53.019 42.981 96 96 96h448c53.019 0 96-42.981 96-96v-128l55.33-379.406c0.446-3.058 0.67-6.145 0.67-9.236v-116.958c0-21.208-17.192-38.4-38.4-38.4h-17.6v-57.6c0-3.535-2.865-6.4-6.4-6.4h-38.4c-3.535 0-6.4 2.865-6.4 6.4v57.6zM528 646.375v40.398c0 17.117 1.782 23.324 5.129 29.582s8.258 11.169 14.516 14.516c6.258 3.347 12.465 5.129 29.582 5.129h141.547c17.117 0 23.324-1.782 29.582-5.129s11.169-8.258 14.516-14.516c3.347-6.258 5.129-12.465 5.129-29.582v-45.546c10.558-0.387 21.224-0.797 32-1.228v109.956c0 28.529-2.97 38.874-8.548 49.303s-13.763 18.615-24.193 24.193c-10.43 5.578-20.775 8.548-49.303 8.548h-411.911c-28.529 0-38.874-2.97-49.303-8.548s-18.615-13.763-24.193-24.193c-5.578-10.43-8.548-20.775-8.548-49.303v-109.956c10.776 0.431 21.442 0.84 32 1.228v45.546c0 17.117 1.782 23.324 5.129 29.582s8.258 11.169 14.516 14.516c6.258 3.347 12.465 5.129 29.582 5.129h141.547c17.117 0 23.324-1.782 29.582-5.129s11.169-8.258 14.516-14.516c3.347-6.258 5.129-12.465 5.129-29.582v-40.398c5.374 0.016 10.708 0.025 16 0.025s10.626-0.008 16-0.025zM166.4 256v-103.387c0-8.559 0.891-11.662 2.564-14.791s4.129-5.584 7.258-7.258c3.129-1.673 6.232-2.564 14.791-2.564h641.973c8.559 0 11.662 0.891 14.791 2.564s5.584 4.129 7.258 7.258c1.673 3.129 2.564 6.232 2.564 14.791v103.387c-59.733 4.267-174.933 6.4-345.6 6.4s-285.867-2.133-345.6-6.4zM233.756 608.61c-9.335-0.345-17.067-7.36-18.317-16.618l-41.040-303.992c54.4 4.267 166.933 6.4 337.6 6.4s283.2-2.133 337.6-6.4l-41.039 303.992c-1.25 9.259-8.983 16.275-18.319 16.62-104.328 3.858-197.075 5.788-278.242 5.788s-173.915-1.93-278.244-5.79zM312.613 704c-8.559 0-11.662-0.891-14.791-2.564s-5.584-4.129-7.258-7.258c-1.673-3.129-2.564-6.232-2.564-14.791v-36.187c21.333 2.133 80 3.2 176 3.2 0 12.8 0 25.6 0 38.4 0 10.604-8.596 19.2-19.2 19.2h-132.187zM560 684.8c0-12.8 0-25.6 0-38.4 64 0 122.667-1.067 176-3.2v36.187c0 8.559-0.891 11.662-2.564 14.791s-4.129 5.584-7.258 7.258c-3.129 1.673-6.232 2.564-14.791 2.564h-132.187c-10.604 0-19.2-8.596-19.2-19.2z" />
<glyph unicode="&#xe909;" glyph-name="bell-fill" data-tags="bell-fill" d="M160 198.479c0.001 14.126 5.628 27.674 15.642 37.664l33.128 33.030c12.288 12.258 19.19 28.884 19.186 46.22v243.045c0 151.085 132.571 273.563 284.044 273.563s284.044-122.478 284.044-273.563v-243.045c-0.002-17.334 6.9-33.959 19.189-46.216l33.125-33.030c10.015-9.991 15.642-23.54 15.642-37.667v-9.95c0-21.66-17.511-39.218-39.111-39.218h-162.882c-4.254-0.001-295.759 0-300.013 0h-162.883c-21.6 0-39.111 17.559-39.111 39.218v9.95zM512 65.088c-31.552 0.102-70.263 15.063-88.638 39.246-2.592 3.412-5.606 8.435-9.041 15.070-0.434 0.838-0.66 1.768-0.66 2.711 0 3.25 2.627 5.885 5.869 5.885l184.931-0.002c0.942 0 1.871-0.228 2.707-0.664 2.875-1.499 3.994-5.052 2.499-7.935-3.498-6.744-6.567-11.843-9.208-15.298-18.381-24.047-57.021-38.912-88.459-39.014z" />
<glyph unicode="&#xe90a;" glyph-name="bell" data-tags="bell" d="M160 211.697c0.001 13.832 5.628 27.097 15.642 36.878l33.128 32.34c12.288 12.003 19.19 28.282 19.186 45.255v237.974c0 147.932 132.571 267.855 284.044 267.855s284.044-119.923 284.044-267.855v-237.974c-0.002-16.972 6.9-33.25 19.189-45.251l33.125-32.341c10.015-9.782 15.642-23.048 15.642-36.881v-9.742c0-21.208-17.511-38.4-39.111-38.4h-162.882c-4.254-0.001-8.020-2.703-9.314-6.682-0.689-2.119-1.291-3.857-1.806-5.214-1.478-3.89-3.13-7.688-4.946-11.384-22.559-45.918-80.221-76.275-133.942-76.275-53.762 0-111.452 30.402-133.989 76.378-1.804 3.681-3.446 7.462-4.915 11.335-0.51 1.344-1.106 3.065-1.787 5.161-1.295 3.979-5.061 6.68-9.315 6.68h-162.883c-21.6 0-39.111 17.192-39.111 38.4v9.742zM825.138 211.702c0.008 3.765-1.524 7.378-4.259 10.039l-33.121 32.337c-19.641 19.082-30.65 45.044-30.576 72.094v237.974c0 126.971-115.172 229.901-245.182 229.901s-245.182-102.93-245.182-229.901v-237.968c0.075-27.056-10.934-53.017-30.569-72.096l-33.129-32.345c-2.733-2.657-4.266-6.27-4.258-10.040v-2.508c0-4.242 3.502-7.68 7.822-7.68h610.631c4.32 0 7.822 3.438 7.822 7.68v2.513zM512 101.957c31.438 0.1 70.077 14.655 88.459 38.2 2.641 3.383 5.71 8.375 9.208 14.978 1.495 2.823 0.376 6.301-2.499 7.769-0.836 0.427-1.765 0.65-2.707 0.65l-184.931 0.002c-3.241 0-5.869-2.58-5.869-5.762 0-0.924 0.226-1.835 0.66-2.655 3.435-6.497 6.449-11.415 9.041-14.756 18.375-23.678 57.086-38.327 88.638-38.427z" />
<glyph unicode="&#xe90b;" glyph-name="call" data-tags="call" d="M903.182 617.113c0 0-105.901-180.376-242.82-317.22-145.563-145.481-315.588-240.859-315.588-240.859-56.175-28.914-111.494-42.539-154.047 0l-77.024 76.951c-21.276 21.27-25.826 59.142 0 76.978l154.047 115.467c26.094 17.675 55.774 21.27 77.024 0l45.577-45.516c53.419 39.857 112.832 88.377 166.251 141.753 47.236 47.206 89.201 98.382 124.153 145.32l-47.156 47.126c-21.25 21.27-17.637 50.934 0 76.978l115.535 153.956c21.276 21.27 55.774 21.27 77.024 0l77.024-76.978c42.553-42.512 22.079-93.259 0-153.956z" />
<glyph unicode="&#xe90c;" glyph-name="camera" data-tags="camera" d="M856.436 93.993h-688.888c-57.106 0-103.548 46.442-103.548 103.548v419.941c0 57.106 46.442 103.548 103.548 103.548h140.568l12.304 41.507c5.022 22.712 25.784 39.383 50.204 39.383h282.754c23.73 0 44.732-16.584 50.29-39.589l0.328-1.415 11.217-39.882h141.239c57.106 0 103.548-46.442 103.548-103.548v-419.939c-0.016-57.111-46.475-103.553-103.564-103.553zM167.548 686.514c-38.072 0-69.031-30.962-69.031-69.031v-419.939c0-38.072 30.962-69.031 69.031-69.031h688.888c38.072 0 69.031 30.962 69.031 69.031v419.939c0 38.072-30.962 69.031-69.031 69.031h-167.367l-18.896 67.393c-1.743 7.836-8.802 13.512-16.81 13.512h-282.757c-8.128 0-15.032-5.556-16.81-13.531l-19.949-67.374h-166.298zM512.019 198.32c-120.788 0-219.056 98.25-219.056 219.021 0 120.788 98.266 219.038 219.056 219.038 120.755 0 219.005-98.266 219.005-219.038-0.003-120.755-98.253-219.021-219.005-219.021zM512.019 601.881c-101.754 0-184.539-82.769-184.539-184.523s82.788-184.505 184.539-184.505c101.735 0 184.488 82.769 184.488 184.505-0.003 101.754-82.772 184.523-184.488 184.523zM834.156 622.453c-17.602 0-31.842-14.272-31.842-31.842 0-17.586 14.237-31.84 31.842-31.84 17.586 0 31.824 14.256 31.824 31.84-0.016 17.57-14.256 31.842-31.824 31.842z" />
<glyph unicode="&#xe90d;" glyph-name="clear" data-tags="clear" d="M559.748 448l294.363 294.363c13.186 13.186 13.186 34.562 0 47.748s-34.562 13.186-47.748 0l-294.363-294.363-294.363 294.318c-13.186 13.186-34.562 13.186-47.748 0s-13.186-34.562 0-47.748l294.363-294.363-294.318-294.318c-13.186-13.186-13.186-34.562 0-47.748 6.615-6.57 15.211-9.901 23.851-9.901s17.281 3.285 23.851 9.901l294.363 294.363 294.363-294.363c6.615-6.57 15.211-9.901 23.851-9.901s17.281 3.285 23.851 9.901c13.186 13.186 13.186 34.562 0 47.748l-294.318 294.363z" />
<glyph unicode="&#xe90e;" glyph-name="close-fill" data-tags="close-fill" d="M512-0.029c-247.036 0-448 200.993-448 448.029s200.964 448 448 448c247.036 0 448-200.964 448-448 0.029-247.036-200.964-448.029-448-448.029zM353.136 290.080c11.031-11.031 28.875-10.981 39.969 0.112l116.402 116.402 117.592-117.592c11.788-11.788 30.953-11.734 42.807 0.12s11.908 31.020 0.12 42.807l-117.592 117.592 117.351 117.351c11.071 11.071 11.144 28.982 0.135 39.991s-28.943 10.958-40.014-0.112l-117.351-117.351-116.626 116.626c-11.788 11.788-30.953 11.734-42.807-0.12s-11.908-31.020-0.12-42.807l116.626-116.626-116.402-116.402c-11.071-11.071-11.099-28.982-0.090-39.991z" />
<glyph unicode="&#xe90f;" glyph-name="close" data-tags="close" d="M512-0.029c-247.036 0-448 200.993-448 448.029s200.964 448 448 448c247.036 0 448-200.964 448-448 0.029-247.036-200.964-448.029-448-448.029zM512 844.821c-218.822 0-396.821-178.029-396.821-396.821s178-396.793 396.821-396.793c218.793 0 396.793 178 396.793 396.793s-178 396.821-396.793 396.821zM353.136 290.080c-11.009 11.009-10.981 28.92 0.090 39.991l116.402 116.402-116.626 116.626c-11.788 11.788-11.734 30.953 0.12 42.807s31.020 11.908 42.807 0.12l116.626-116.626 117.351 117.351c11.071 11.071 29.005 11.121 40.014 0.112s10.936-28.92-0.135-39.991l-117.351-117.351 117.592-117.592c11.788-11.788 11.734-30.953-0.12-42.807s-31.020-11.908-42.807-0.12l-117.592 117.592-116.402-116.402c-11.093-11.093-28.937-11.144-39.969-0.112z" />
<glyph unicode="&#xe910;" glyph-name="closet-fill" data-tags="closet-fill" d="M782.645 896h-541.291c-46.616 0-84.555-38.004-84.555-84.697v-675.888c0-46.693 37.939-84.697 84.555-84.697l0.017-41.117c0.002-5.301 4.299-9.597 9.6-9.597l14.629-0.003c5.302 0 9.6 4.298 9.6 9.6v41.117h473.6v-41.117c0-5.302 4.298-9.6 9.6-9.6h14.629c5.302 0 9.6 4.298 9.6 9.6v41.117c46.633 0 84.571 38.004 84.571 84.697v675.888c0 46.693-37.939 84.697-84.555 84.697zM241.371 84.528c-27.993 0-50.743 22.823-50.743 50.886v675.888c0 28.063 22.75 50.886 50.726 50.886h253.731v-777.66h-253.714zM249.973 97.28c-25.627 0-46.453 22.070-46.453 49.207v653.586c0 27.137 20.827 49.207 46.438 49.207h232.282v-752h-232.267zM437.029 540.981c-5.302 0-9.6-4.298-9.6-9.6v-99.14c0-5.302 4.298-9.6 9.6-9.6h14.629c5.302 0 9.6 4.298 9.6 9.6v99.14c0 5.302-4.298 9.6-9.6 9.6h-14.629zM833.371 135.414c0-28.063-22.75-50.886-50.726-50.886h-253.731v777.66h253.731c27.976 0 50.726-22.823 50.726-50.886v-675.888zM820.48 146.487c0-27.137-20.827-49.207-46.438-49.207h-232.282v752h232.282c25.611 0 46.438-22.070 46.438-49.207v-653.586zM572.343 540.981c-5.302 0-9.6-4.298-9.6-9.6v-99.14c0-5.302 4.298-9.6 9.6-9.6h14.629c5.302 0 9.6 4.298 9.6 9.6v99.14c0 5.302-4.298 9.6-9.6 9.6h-14.629z" />
<glyph unicode="&#xe911;" glyph-name="closet" data-tags="closet" d="M782.645 896h-541.291c-46.616 0-84.555-38.004-84.555-84.697v-675.888c0-46.693 37.939-84.697 84.555-84.697l0.017-41.117c0.002-5.301 4.299-9.597 9.6-9.597l14.629-0.003c5.302 0 9.6 4.298 9.6 9.6v41.117h473.6v-41.117c0-5.302 4.298-9.6 9.6-9.6h14.629c5.302 0 9.6 4.298 9.6 9.6v41.117c46.633 0 84.571 38.004 84.571 84.697v675.888c0 46.693-37.939 84.697-84.555 84.697zM243.573 87.68c-27.392 0-49.653 22.633-49.653 50.463v670.273c0 27.83 22.261 50.463 49.637 50.463h248.283v-771.2h-248.267zM830.080 138.143c0-27.83-22.261-50.463-49.637-50.463h-248.283v771.2h248.283c27.376 0 49.637-22.633 49.637-50.463v-670.273zM437.029 540.981h14.629c5.302 0 9.6-4.298 9.6-9.6v-99.14c0-5.302-4.298-9.6-9.6-9.6h-14.629c-5.302 0-9.6 4.298-9.6 9.6v99.14c0 5.302 4.298 9.6 9.6 9.6zM572.343 540.981c-5.302 0-9.6-4.298-9.6-9.6v-99.14c0-5.302 4.298-9.6 9.6-9.6h14.629c5.302 0 9.6 4.298 9.6 9.6v99.14c0 5.302-4.298 9.6-9.6 9.6h-14.629z" />
<glyph unicode="&#xe912;" glyph-name="bell-ring" data-tags="bell-ring" d="M120.664 622.473c6.206-6.468 6.206-16.922 0-23.39-28.753-29.874-44.586-69.689-44.586-112.085s15.833-82.195 44.586-112.085c6.222-6.468 6.222-16.922 0-23.39-3.103-3.226-7.176-4.847-11.25-4.847s-8.147 1.621-11.25 4.847c-34.768 36.127-53.91 84.246-53.91 135.475s19.142 99.332 53.91 135.475c6.222 6.468 16.278 6.468 22.5 0zM190.107 390.332c-4.172 0-8.343 1.573-11.521 4.752-54.377 54.103-54.377 142.182 0 196.3 6.371 6.341 16.67 6.341 23.041 0s6.371-16.591 0-22.932c-41.683-41.469-41.683-108.951 0-150.436 6.371-6.341 6.371-16.591 0-22.932-3.178-3.162-7.349-4.752-11.521-4.752zM925.836 622.473c34.768-36.143 53.91-84.246 53.91-135.475s-19.142-99.348-53.91-135.475c-3.103-3.226-7.176-4.847-11.25-4.847s-8.147 1.621-11.25 4.847c-6.222 6.468-6.222 16.922 0 23.39 28.753 29.891 44.586 69.689 44.586 112.085s-15.833 82.195-44.586 112.085c-6.222 6.468-6.222 16.922 0 23.39s16.278 6.468 22.5 0zM822.372 591.385c6.355 6.341 16.67 6.341 23.041 0 54.377-54.103 54.377-142.182 0-196.3-3.178-3.162-7.349-4.752-11.521-4.752s-8.343 1.589-11.521 4.752c-6.371 6.341-6.371 16.591 0 22.932 41.683 41.469 41.683 108.951 0 150.436-6.371 6.341-6.371 16.591 0 22.932zM160 211.697c0.001 13.832 5.628 27.097 15.642 36.878l33.128 32.34c12.288 12.003 19.19 28.282 19.186 45.255v237.974c0 147.932 132.571 267.855 284.044 267.855s284.044-119.923 284.044-267.855v-237.974c-0.002-16.972 6.9-33.25 19.189-45.251l33.125-32.341c10.015-9.782 15.642-23.048 15.642-36.881v-9.742c0-21.208-17.511-38.4-39.111-38.4h-162.882c-4.254-0.001-8.020-2.703-9.314-6.682-0.689-2.119-1.291-3.857-1.806-5.214-1.478-3.89-3.13-7.688-4.946-11.384-22.559-45.918-80.221-76.275-133.942-76.275-53.762 0-111.452 30.402-133.989 76.378-1.804 3.681-3.446 7.462-4.915 11.335-0.51 1.344-1.106 3.065-1.787 5.161-1.295 3.979-5.061 6.68-9.315 6.68h-162.883c-21.6 0-39.111 17.192-39.111 38.4v9.742zM821.76 214.565c0.008 3.725-1.508 7.3-4.215 9.932l-32.781 31.993c-19.439 18.879-30.335 44.565-30.262 71.327v235.445c0 125.621-113.988 227.458-242.662 227.458s-242.662-101.836-242.662-227.458v-235.438c0.074-26.768-10.821-52.454-30.255-71.33l-32.788-32.001c-2.705-2.628-4.222-6.203-4.215-9.933v-2.482c0-4.196 3.466-7.598 7.742-7.598h604.356c4.276 0 7.742 3.402 7.742 7.598v2.487zM512 101.957c31.438 0.1 70.077 14.655 88.459 38.2 2.641 3.383 5.71 8.375 9.208 14.978 1.495 2.823 0.376 6.301-2.499 7.769-0.836 0.427-1.765 0.65-2.707 0.65l-184.931 0.002c-3.241 0-5.869-2.58-5.869-5.762 0-0.924 0.226-1.835 0.66-2.655 3.435-6.497 6.449-11.415 9.041-14.756 18.375-23.678 57.086-38.327 88.638-38.427z" />
<glyph unicode="&#xe913;" glyph-name="cook" data-tags="cook" d="M851.615 735.665c0-29.592-24.298-53.668-54.163-53.668s-54.161 24.076-54.161 53.668c0 29.592 24.297 53.668 54.161 53.668s54.163-24.076 54.163-53.668zM797.452 759.467c-12.594 0-22.841-10.154-22.841-22.631 0-12.48 10.246-22.631 22.841-22.631 12.597 0 22.843 10.151 22.843 22.631 0 12.478-10.246 22.631-22.843 22.631zM611.61 652.163c-10.341 0-18.727 8.308-18.727 18.557 0 35.125 28.836 63.7 64.281 63.7 35.447 0 64.283-28.577 64.283-63.7 0-10.249-8.386-18.557-18.727-18.557s-18.727 8.308-18.727 18.557c0 14.659-12.036 26.585-26.829 26.585-14.791 0-26.827-11.927-26.827-26.585 0-10.249-8.386-18.557-18.727-18.557zM233.8 42.667h556.4c11.819 0 21.4-9.551 21.4-21.333s-9.581-21.333-21.4-21.333h-556.4c-11.819 0-21.4 9.551-21.4 21.333s9.581 21.333 21.4 21.333zM683.608 213.333l30.009-29.125c16.021-15.549 16.364-41.101 0.767-57.072-0.275-0.282-0.554-0.559-0.837-0.833l-19.472-18.807c-6.69-6.462-10.467-15.351-10.467-24.638 0-3.436-2.794-6.221-6.241-6.221-1.604 0-3.146 0.615-4.307 1.719l-20.065 19.073c-16.059 15.265-16.664 40.618-1.351 56.627 0.452 0.472 0.915 0.934 1.39 1.384l9.56 9.064c13.417 12.72 21.013 30.371 21.013 48.829zM521.049 256l36.015-36.41c19.86-20.078 19.821-52.347-0.088-72.377l-23.104-23.245c-8.214-8.264-12.822-19.427-12.822-31.060 0-4.174-3.395-7.558-7.582-7.558-2.002 0-3.923 0.789-5.343 2.196l-23.812 23.578c-20.073 19.875-20.182 52.209-0.245 72.219 0.097 0.098 0.195 0.195 0.293 0.292l11.331 11.19c16.228 16.026 25.357 37.852 25.357 60.623v0.553zM340.397 213.333c0-18.458 7.596-36.109 21.013-48.829l9.56-9.064c0.474-0.45 0.938-0.911 1.39-1.384 15.313-16.009 14.708-41.362-1.351-56.627l-20.065-19.073c-1.161-1.103-2.703-1.719-4.307-1.719-3.447 0-6.241 2.785-6.241 6.221 0 9.286-3.777 18.176-10.467 24.638l-19.472 18.807c-0.283 0.273-0.562 0.551-0.837 0.833-15.597 15.971-15.254 41.523 0.767 57.072l30.009 29.125zM854.4 617.145v-256.507c0-51.572-42.339-93.527-94.383-93.527h-496.037c-52.041 0-94.38 41.956-94.38 93.527v256.507c0 12.016 9.831 21.756 21.955 21.756h640.891c12.123 0 21.955-9.74 21.955-21.756zM814.030 603.045h-607.785v-242.407c0-27.58 29.904-57.426 57.734-57.426h496.037c27.832 0 54.015 29.846 54.015 57.426v242.407zM185.526 714.479c-2.79 11.694 4.514 23.413 16.314 26.178l238.506 55.879-4.206 17.642c-7.89 33.075 12.846 66.344 46.221 74.16l25.617 6c33.364 7.819 66.948-12.725 74.841-45.798l4.211-17.642 238.503 55.881c11.796 2.761 23.627-4.473 26.416-16.167s-4.514-23.413-16.314-26.178l-623.689-146.123c-1.697-0.398-3.399-0.59-5.072-0.59-9.945 0.002-18.958 6.746-21.346 16.756zM483.078 806.549l61.218 14.343-4.209 17.639c-1.987 8.328-9.515 13.956-17.799 13.956-1.39 0-2.797-0.159-4.209-0.487l-25.617-6.002c-9.818-2.302-15.915-12.083-13.594-21.81l4.209-17.639z" />
<glyph unicode="&#xe914;" glyph-name="create-home-fill" data-tags="create-home-fill" d="M870.396 486.286v-300.544c0-84.594-68.372-153.742-152.215-153.742h-412.369c-83.754 0-152.213 69.059-152.213 153.742v300.544c0 39.204 14.766 76.153 39.48 102.921 1.281 1.65 1.281 1.65 2.461 2.966 18.957 19.828 56.56 58.769 116.25 120.461l108.892 112.481c50.165 51.849 132.464 51.849 182.642-0.012l108.636-112.473c14.789-15.286 14.789-15.286 30.054-31.067 26.062-26.943 51.605-53.358 84.602-87.484 1.063-1.033 2.147-2.188 3.19-3.534 26.13-28.291 40.862-65.245 40.59-104.26zM485.12 211.201c0-10.604 8.596-19.2 19.2-19.2h15.36c10.604 0 19.2 8.596 19.2 19.2v145.919h145.92c10.604 0 19.2 8.596 19.2 19.2v15.36c0 10.604-8.596 19.2-19.2 19.2h-145.92v145.92c0 10.604-8.596 19.2-19.2 19.2h-15.36c-10.604 0-19.2-8.596-19.2-19.2v-145.92h-145.92c-10.604 0-19.2-8.596-19.2-19.2v-15.36c0-10.604 8.596-19.2 19.2-19.2h145.92v-145.919z" />
<glyph unicode="&#xe915;" glyph-name="create-home" data-tags="create-home" d="M870.396 486.286v-300.544c0-84.594-68.372-153.742-152.215-153.742h-412.369c-83.754 0-152.213 69.059-152.213 153.742v300.544c0 39.204 14.766 76.153 39.48 102.921 1.281 1.65 1.281 1.65 2.461 2.966 18.957 19.828 56.56 58.769 116.25 120.461l108.892 112.481c50.165 51.849 132.464 51.849 182.642-0.012l108.636-112.473c14.789-15.286 14.789-15.286 30.054-31.067 26.062-26.943 51.605-53.358 84.602-87.484 1.063-1.033 2.147-2.188 3.19-3.534 26.13-28.291 40.862-65.245 40.59-104.26zM800.498 564.193l-2.079 2.631c-32.86 33.699-58.402 60.111-84.389 86.978-15.336 15.854-15.336 15.854-30.135 31.15l-108.636 112.473c-34.778 35.945-91.747 35.945-126.528-0.004l-108.892-112.481c-59.605-61.605-97.202-100.54-114.733-118.882-0.817-0.837-0.817-0.837-1.954-2.203-19.389-21.125-30.328-48.497-30.328-77.568v-300.544c0-62.791 50.886-114.123 112.988-114.123h412.369c62.168 0 112.99 51.398 112.99 114.123v300.683c0.204 29.173-10.889 56.683-30.674 77.768zM485.12 211.201v145.919h-145.92c-10.604 0-19.2 8.596-19.2 19.2v15.36c0 10.604 8.596 19.2 19.2 19.2h145.92v145.92c0 10.604 8.596 19.2 19.2 19.2h15.36c10.604 0 19.2-8.596 19.2-19.2v-145.92h145.92c10.604 0 19.2-8.596 19.2-19.2v-15.36c0-10.604-8.596-19.2-19.2-19.2h-145.92v-145.919c0-10.604-8.596-19.2-19.2-19.2h-15.36c-10.604 0-19.2 8.596-19.2 19.2z" />
<glyph unicode="&#xe916;" glyph-name="edit" data-tags="edit" d="M439.396 332.221l-28.486 28.486c-6.589 6.589-6.587 17.275 0.006 23.867l328.481 328.481c14.462 14.462 37.904 14.468 52.36 0.012s14.45-37.898-0.012-52.36l-328.481-328.481c-6.592-6.592-17.278-6.595-23.867-0.006zM844.129 765.439c-43.366 43.366-113.693 43.35-157.079-0.037l-379.697-379.697c-7.231-7.231-7.234-18.952-0.006-26.18l130.869-130.869c7.228-7.228 18.949-7.225 26.18 0.006l379.697 379.697c43.386 43.386 43.403 113.713 0.037 157.079zM227.243 126.783c-2.688-0.672-5.499-0.673-8.186-0.002-9.042 2.258-14.538 11.42-12.275 20.463l44.895 179.424c0.743 2.968 2.278 5.678 4.441 7.841 6.592 6.592 17.278 6.595 23.867 0.006l134.528-134.528c2.162-2.162 3.696-4.872 4.437-7.839 2.258-9.042-3.241-18.206-12.284-20.469l-179.424-44.895z" />
<glyph unicode="&#xe917;" glyph-name="filter" data-tags="filter" d="M228.033 192c-2.632-10.228-4.033-20.95-4.033-32s1.4-21.772 4.033-32h-80.833c-10.604 0-19.2 8.596-19.2 19.2v25.6c0 10.604 8.596 19.2 19.2 19.2h80.833zM475.967 192h400.833c10.604 0 19.2-8.596 19.2-19.2v-25.6c0-10.604-8.596-19.2-19.2-19.2h-400.833c2.632 10.228 4.033 20.95 4.033 32s-1.4 21.772-4.033 32zM548.033 480c-2.632-10.228-4.033-20.95-4.033-32s1.4-21.772 4.033-32h-400.833c-10.604 0-19.2 8.596-19.2 19.2v25.6c0 10.604 8.596 19.2 19.2 19.2h400.833zM795.967 480h80.833c10.604 0 19.2-8.596 19.2-19.2v-25.6c0-10.604-8.596-19.2-19.2-19.2h-80.833c2.632 10.228 4.033 20.95 4.033 32s-1.4 21.772-4.033 32zM228.033 768c-2.632-10.228-4.033-20.95-4.033-32s1.4-21.772 4.033-32h-80.833c-10.604 0-19.2 8.596-19.2 19.2v25.6c0 10.604 8.596 19.2 19.2 19.2h80.833zM475.967 768h400.833c10.604 0 19.2-8.596 19.2-19.2v-25.6c0-10.604-8.596-19.2-19.2-19.2h-400.833c2.632 10.228 4.033 20.95 4.033 32s-1.4 21.772-4.033 32zM352 640c-53.019 0-96 42.981-96 96s42.981 96 96 96c53.019 0 96-42.981 96-96s-42.981-96-96-96zM672 352c-53.019 0-96 42.981-96 96s42.981 96 96 96c53.019 0 96-42.981 96-96s-42.981-96-96-96zM352 64c-53.019 0-96 42.981-96 96s42.981 96 96 96c53.019 0 96-42.981 96-96s-42.981-96-96-96z" />
<glyph unicode="&#xe918;" glyph-name="fridge-fill" data-tags="fridge-fill" d="M794.72 567.467c8.217 0 14.88 6.686 14.88 14.933v238.933c-0.048 41.216-33.331 74.618-74.4 74.667h-446.4c-41.069-0.049-74.352-33.451-74.4-74.667v-238.933c0-8.247 6.663-14.933 14.88-14.933h14.88v-14.933h-14.88c-8.217 0-14.88-6.686-14.88-14.933v-418.133c0.048-41.216 33.331-74.618 74.4-74.667v-44.8h104.16v44.8h238.080v-44.8h104.16v44.8c41.069 0.049 74.352 33.451 74.4 74.667v418.133c0 8.247-6.663 14.933-14.88 14.933h-14.88v14.933h14.88zM363.2 29.867h-44.64v14.933h44.64v-14.933zM705.44 29.867h-44.64v14.933h44.64v-14.933zM779.84 119.467c0-24.743-19.986-44.8-44.64-44.8h-446.4c-24.654 0-44.64 20.057-44.64 44.8v403.2h535.68v-403.2zM288.8 358.4c8.217 0 14.88 6.686 14.88 14.933v104.533c0 8.247-6.663 14.933-14.88 14.933s-14.88-6.686-14.88-14.933v-104.533c0-8.247 6.663-14.933 14.88-14.933zM273.92 552.533v14.933h476.16v-14.933h-476.16zM244.16 597.333v224c0 24.743 19.986 44.8 44.64 44.8h446.4c24.654 0 44.64-20.057 44.64-44.8v-224h-535.68zM256.96 610.24v202.667c0 22.386 19.031 40.533 42.507 40.533h425.067c23.476 0 42.507-18.147 42.507-40.533v-202.667h-510.080zM288.8 761.6c-8.217 0-14.88-6.686-14.88-14.933v-104.533c0-8.247 6.663-14.933 14.88-14.933s14.88 6.686 14.88 14.933v104.533c0 8.247-6.663 14.933-14.88 14.933z" />
<glyph unicode="&#xe919;" glyph-name="fridge" data-tags="fridge" d="M794.72 567.467c8.217 0 14.88 6.686 14.88 14.933v238.933c-0.048 41.216-33.331 74.618-74.4 74.667h-446.4c-41.069-0.049-74.352-33.451-74.4-74.667v-238.933c0-8.247 6.663-14.933 14.88-14.933h14.88v-14.933h-14.88c-8.217 0-14.88-6.686-14.88-14.933v-418.133c0.048-41.216 33.331-74.618 74.4-74.667v-32c0-7.069 5.731-12.8 12.8-12.8h78.56c7.069 0 12.8 5.731 12.8 12.8v32h238.080v-32c0-7.069 5.731-12.8 12.8-12.8h78.56c7.069 0 12.8 5.731 12.8 12.8v32c41.069 0.049 74.352 33.451 74.4 74.667v418.133c0 8.247-6.663 14.933-14.88 14.933h-14.88v14.933h14.88zM360 22.4h-38.080c-3.535 0-6.4 2.865-6.4 6.4v16h50.88v-16c0-3.535-2.865-6.4-6.4-6.4zM700.8 21.12h-36.8c-3.535 0-6.4 2.865-6.4 6.4v17.28h49.6v-17.28c0-3.535-2.865-6.4-6.4-6.4zM776.64 121.92c0-24.389-19.747-44.16-44.107-44.16h-441.067c-24.36 0-44.107 19.771-44.107 44.16v397.44h529.28v-397.44zM273.92 552.533v14.933h476.16v-14.933h-476.16zM247.36 600.64v218.667c0 24.154 19.747 43.733 44.107 43.733h441.067c24.36 0 44.107-19.58 44.107-43.733v-218.667h-529.28zM288.8 761.6c-8.217 0-14.88-6.686-14.88-14.933v-104.533c0-8.247 6.663-14.933 14.88-14.933s14.88 6.686 14.88 14.933v104.533c0 8.247-6.663 14.933-14.88 14.933zM288.8 358.4c-8.217 0-14.88 6.686-14.88 14.933v104.533c0 8.247 6.663 14.933 14.88 14.933s14.88-6.686 14.88-14.933v-104.533c0-8.247-6.663-14.933-14.88-14.933z" />
<glyph unicode="&#xe91a;" glyph-name="g-female" data-tags="g-female" d="M512 832c-142.924 0-259.2-116.075-259.2-258.75 0-62.948 22.913-123.614 64.519-170.822 39.036-44.294 91.856-73.879 149.603-84.006v-72.922h-46.581c-24.856 0-45.078-20.187-45.078-45 0-12.020 4.69-23.32 13.203-31.82s19.834-13.18 31.875-13.18h46.581v-46.5c0-24.813 20.222-45 45.078-45s45.078 20.187 45.078 45v46.5h46.581c12.042 0 23.361 4.682 31.875 13.18 8.514 8.5 13.203 19.8 13.203 31.82 0 24.813-20.222 45-45.078 45h-46.581v72.921c57.747 10.127 110.565 39.714 149.603 84.006 41.606 47.209 64.519 107.875 64.519 170.823 0 142.675-116.276 258.75-259.2 258.75zM544.285 339.198c-5.584-0.761-9.746-5.522-9.746-11.147v-93.801c0-6.213 5.044-11.25 11.27-11.25h57.85c12.428 0 22.539-10.094 22.539-22.5 0-6.009-2.346-11.66-6.602-15.91s-9.916-6.59-15.937-6.59h-57.85c-6.225 0-11.27-5.037-11.27-11.25v-57.75c0-12.406-10.111-22.5-22.539-22.5s-22.539 10.094-22.539 22.5v57.75c0 6.213-5.044 11.25-11.27 11.25h-57.85c-6.021 0-11.68 2.34-15.937 6.59s-6.602 9.902-6.602 15.91c0 12.406 10.111 22.5 22.539 22.5h57.85c6.225 0 11.27 5.037 11.27 11.25v93.801c0 5.625-4.164 10.386-9.746 11.147-116.514 15.862-204.376 116.482-204.376 234.052 0 130.269 106.165 236.25 236.661 236.25s236.661-105.981 236.661-236.25c0-117.57-87.862-218.19-204.376-234.052zM512 764.5c-42.982 0-83.607-13.893-117.478-40.178-4.915-3.813-5.802-10.881-1.982-15.786s10.901-5.79 15.813-1.977c29.881 23.185 65.721 35.44 103.647 35.44 93.21 0 169.043-75.7 169.043-168.75s-75.834-168.75-169.043-168.75c-93.21 0-169.043 75.7-169.043 168.75 0 37.862 12.276 73.639 35.504 103.467 3.82 4.906 2.932 11.973-1.982 15.786-4.912 3.813-11.992 2.93-15.813-1.977-26.33-33.813-40.247-74.367-40.247-117.276 0-105.456 85.943-191.25 191.583-191.25s191.583 85.794 191.583 191.25c0 105.456-85.943 191.25-191.583 191.25z" />
<glyph unicode="&#xe91b;" glyph-name="g-lgbt" data-tags="g-lbgt" d="M831.993 830.365c0 36.186-30.11 65.625-67.122 65.625l-136.132 0.010c-29.609 0-53.698-23.551-53.698-52.5s24.089-52.5 53.696-52.5l21.296-0.004-142.551-139.371c-32.059 18.445-68.498 28.145-106.063 28.145-55.937 0-108.526-21.297-148.080-59.969-39.555-38.671-61.339-90.090-61.339-144.781s21.783-106.108 61.339-144.779c26.283-25.697 58.733-43.934 94.384-53.144v-80.222h-40.275c-14.343 0-27.826-5.462-37.968-15.377-10.142-9.917-15.728-23.1-15.728-37.123 0-28.948 24.089-52.5 53.698-52.5h40.273v-39.375c0-14.024 5.585-27.207 15.728-37.124 10.143-9.915 23.627-15.377 37.97-15.377 29.609 0 53.698 23.551 53.698 52.5v39.375h40.273c29.609 0 53.698 23.551 53.698 52.5 0 14.023-5.586 27.207-15.728 37.123-10.143 9.917-23.627 15.377-37.97 15.377h-40.273v80.222c35.652 9.21 68.101 27.447 94.384 53.144 34.214 33.451 55.643 77.759 60.336 124.763 4.271 42.772-5.393 85.986-27.291 122.859l142.053 138.887 0.004-20.82c0-28.948 24.089-52.5 53.698-52.5s53.698 23.551 53.698 52.5l-0.007 134.436zM778.306 669.68c-14.804 0-26.849 11.776-26.849 26.252l-0.011 52.5c0 5.308-3.272 10.094-8.287 12.124-5.017 2.032-10.791 0.91-14.629-2.845l-172.468-168.621c-4.494-4.394-5.221-11.268-1.74-16.467 47.016-70.238 37.005-164.368-23.802-223.819-25.184-24.621-56.848-41.384-91.57-48.478-6.222-1.27-10.679-6.634-10.679-12.847v-103.726c0-7.248 6.011-13.125 13.424-13.125h53.698c7.17 0 13.913-2.73 18.984-7.688s7.865-11.55 7.865-18.562c0-14.474-12.044-26.25-26.849-26.25h-53.698c-7.414 0-13.424-5.876-13.424-13.125v-52.5c0-14.474-12.044-26.25-26.849-26.25-7.172 0-13.913 2.732-18.986 7.689-5.071 4.958-7.863 11.55-7.863 18.56v52.5c0 7.248-6.011 13.125-13.424 13.125h-53.698c-14.804 0-26.849 11.776-26.849 26.25 0 7.012 2.794 13.603 7.865 18.562 5.071 4.958 11.813 7.688 18.984 7.688h53.698c7.414 0 13.424 5.876 13.424 13.125v103.726c0 6.214-4.457 11.576-10.679 12.847-34.723 7.094-66.388 23.858-91.57 48.478-34.483 33.714-53.474 78.54-53.474 126.219s18.991 92.505 53.474 126.219c34.483 33.714 80.33 52.279 129.096 52.279 35.985 0 70.773-10.201 100.602-29.498 5.32-3.44 12.386-2.746 16.9 1.666l173.006 169.148c3.839 3.754 4.989 9.397 2.91 14.303-2.076 4.903-6.972 8.102-12.401 8.102l-53.701 0.011c-14.804 0-26.849 11.776-26.849 26.25s12.044 26.25 26.849 26.25l136.134-0.010c22.208 0 40.273-17.663 40.273-39.375l0.011-134.433c-0.002-14.476-12.046-26.252-26.851-26.252zM401.421 601.021c-23.867 0-47.189-6.443-67.45-18.63-6.315-3.799-8.282-11.884-4.398-18.056 3.886-6.172 12.154-8.097 18.468-4.3 16.025 9.642 34.485 14.738 53.379 14.738 56.257 0 102.025-44.747 102.025-99.75s-45.768-99.75-102.025-99.75c-56.257 0-102.025 44.747-102.025 99.75 0 18.475 5.212 36.521 15.075 52.188 3.886 6.172 1.917 14.257-4.398 18.056-6.313 3.799-14.582 1.874-18.468-4.3-12.469-19.806-19.057-42.611-19.057-65.945 0-69.477 57.813-126 128.874-126s128.874 56.523 128.874 126c0 69.477-57.811 125.998-128.874 125.998z" />
<glyph unicode="&#xe91c;" glyph-name="g-male" data-tags="g-male" d="M839.75 832h-213.75c-24.813 0-45-20.187-45-45s20.187-45 45-45h116.36l-130.008-130.008c-52.52 38.969-114.742 59.508-180.602 59.508-167.489 0-303.75-136.262-303.75-303.75s136.261-303.75 303.75-303.75c167.488 0 303.75 136.262 303.75 303.75 0 65.859-20.54 128.084-59.51 180.602l130.010 130.009v-116.361c0-24.813 20.187-45 45-45s45 20.187 45 45v213.75c0 31.017-25.233 56.25-56.25 56.25zM873.5 562c0-12.406-10.094-22.5-22.5-22.5s-22.5 10.094-22.5 22.5v143.52c0 4.551-2.74 8.652-6.945 10.393s-9.042 0.779-12.261-2.439l-156.189-156.187c-4.040-4.040-4.409-10.469-0.86-14.945 39.746-50.124 60.754-110.497 60.754-174.592 0-155.082-126.168-281.25-281.25-281.25s-281.25 126.168-281.25 281.25c0 155.082 126.168 281.25 281.25 281.25 64.094 0 124.467-21.008 174.592-60.753 4.478-3.549 10.905-3.18 14.946 0.861l156.186 156.188c3.218 3.217 4.179 8.056 2.438 12.259-1.74 4.205-5.844 6.945-10.394 6.945h-143.518c-12.406 0-22.5 10.094-22.5 22.5s10.094 22.5 22.5 22.5h213.75c18.609 0 33.75-15.139 33.75-33.75v-213.75zM431.75 604c-54.387 0-107.486-18.94-149.514-53.334-4.809-3.934-5.517-11.022-1.582-15.831s11.023-5.517 15.831-1.583c38.020 31.113 86.058 48.248 135.265 48.248 117.862 0 213.75-95.888 213.75-213.75s-95.888-213.75-213.75-213.75c-117.862 0-213.75 95.888-213.75 213.75 0 49.208 17.135 97.246 48.248 135.266 3.934 4.809 3.226 11.896-1.581 15.831s-11.896 3.225-15.831-1.581c-34.395-42.030-53.335-95.129-53.335-149.516 0-130.269 105.981-236.25 236.25-236.25s236.25 105.981 236.25 236.25c0 130.269-105.981 236.25-236.25 236.25z" />
<glyph unicode="&#xe91d;" glyph-name="home-list" data-tags="home-list" d="M870.396 486.286v-300.544c0-84.594-68.372-153.742-152.215-153.742h-412.369c-83.754 0-152.213 69.059-152.213 153.742v300.544c0 39.204 14.766 76.153 39.48 102.921 1.281 1.65 1.281 1.65 2.461 2.966 18.957 19.828 56.56 58.769 116.25 120.461l108.892 112.481c50.165 51.849 132.464 51.849 182.642-0.012l108.636-112.473c14.789-15.286 14.789-15.286 30.054-31.067 26.062-26.943 51.605-53.358 84.602-87.484 1.063-1.033 2.147-2.188 3.19-3.534 26.13-28.291 40.862-65.245 40.59-104.26zM800.498 564.193l-2.079 2.631c-32.86 33.699-58.402 60.111-84.389 86.978-15.336 15.854-15.336 15.854-30.135 31.15l-108.636 112.473c-34.778 35.945-91.747 35.945-126.528-0.004l-108.892-112.481c-59.605-61.605-97.202-100.54-114.733-118.882-0.817-0.837-0.817-0.837-1.954-2.203-19.389-21.125-30.328-48.497-30.328-77.568v-300.544c0-62.791 50.886-114.123 112.988-114.123h412.369c62.168 0 112.99 51.398 112.99 114.123v300.683c0.204 29.173-10.889 56.683-30.674 77.768zM339.2 435.2c-21.208 0-38.4 17.192-38.4 38.4s17.192 38.4 38.4 38.4c21.208 0 38.4-17.192 38.4-38.4s-17.192-38.4-38.4-38.4zM428.8 499.2h268.8c14.138 0 25.6-11.462 25.6-25.6s-11.462-25.6-25.6-25.6h-268.8c-14.138 0-25.6 11.462-25.6 25.6s11.462 25.6 25.6 25.6zM339.2 300.8c-21.208 0-38.4 17.192-38.4 38.4s17.192 38.4 38.4 38.4c21.208 0 38.4-17.192 38.4-38.4s-17.192-38.4-38.4-38.4zM428.8 364.8h268.8c14.138 0 25.6-11.462 25.6-25.6s-11.462-25.6-25.6-25.6h-268.8c-14.138 0-25.6 11.462-25.6 25.6s11.462 25.6 25.6 25.6zM339.2 166.4c-21.208 0-38.4 17.192-38.4 38.4s17.192 38.4 38.4 38.4c21.208 0 38.4-17.192 38.4-38.4s-17.192-38.4-38.4-38.4zM428.8 230.4h268.8c14.138 0 25.6-11.462 25.6-25.6s-11.462-25.6-25.6-25.6h-268.8c-14.138 0-25.6 11.462-25.6 25.6s11.462 25.6 25.6 25.6z" />
<glyph unicode="&#xe91e;" glyph-name="image" data-tags="image" d="M517.747 563.753c-50.476 0-91.397-41.018-91.397-91.618 0-50.598 40.919-91.618 91.397-91.618 50.476 0 91.397 41.018 91.397 91.618s-40.919 91.618-91.397 91.618zM882.247 773.165c47.919-5.701 82.354-48.972 77.252-97.073l-50.051-442.815c-2.637-22.947-13.924-44.018-31.554-58.896-12.423-8.632-26.503-14.576-41.346-17.45v-17.45c0-47.99-43.522-85.073-91.397-85.073h-597.341c-1.1-0.015-2.201-0.008-3.301 0.021-45.655 1.209-81.686 39.289-80.48 85.052v446.086c0 47.99 35.906 90.526 83.781 90.526h33.732l10.88 89.436c2.385 22.419 13.779 42.899 31.554 56.715 17.777 15.081 41.138 21.828 64.194 18.542l594.077-67.62zM793.026 139.48h0.002v211.591l-214.346-124.337c-15.759-9.497-33.842-14.405-52.228-14.179-23.515 0.363-46.186 8.837-64.196 23.995l-118.598 104.705c-18.664 17.478-47.2 18.864-67.46 3.271l-168.649-124.337v-80.71c-0.062-1.117-0.077-2.234-0.044-3.351 0.635-21.676 18.679-38.732 40.303-38.095h597.341c23.937 0 47.875 17.45 47.875 41.446zM517.747 424.147c-26.441 0-47.875 21.486-47.875 47.99s21.434 47.99 47.875 47.99c26.441 0 47.875-21.486 47.875-47.99s-21.434-47.99-47.875-47.99zM793.026 402.334v183.233c-1.647 25.603-22.301 45.836-47.875 46.899h-597.341c-23.937 0-40.259-22.903-40.259-46.899v-310.841l143.623 104.705c36.335 26.995 86.472 25.183 120.774-4.363l119.685-105.797c18.048-15.359 43.828-17.549 64.196-5.453l237.196 138.516zM916.018 681.982c2.272 23.987-15.284 45.279-39.209 47.556l-592.99 68.712c-11.563 0.971-23.1-2.113-32.643-8.726-8.451-7.359-14.197-17.342-16.321-28.358l-9.792-85.073h520.086c49.585-1.125 89.679-40.838 91.397-90.526v-385.008c0 2.182 9.792 4.363 14.145 8.726 9.009 7.092 14.233 17.966 14.145 29.448l51.138 442.815c0.017 0.144 0.029 0.29 0.044 0.434z" />
<glyph unicode="&#xe91f;" glyph-name="information" data-tags="information" d="M806.156 742.154c-78.572 78.575-183.037 121.846-294.156 121.846s-215.584-43.27-294.154-121.846c-78.575-78.57-121.846-183.035-121.846-294.154s43.27-215.584 121.846-294.156c78.57-78.574 183.035-121.844 294.154-121.844s215.584 43.27 294.156 121.844c78.574 78.572 121.844 183.037 121.844 294.156s-43.27 215.584-121.844 294.154zM512 65.147c-211.105 0-382.853 171.746-382.853 382.853s171.748 382.853 382.853 382.853c211.105 0 382.853-171.748 382.853-382.853s-171.748-382.853-382.853-382.853zM512 576c-24.702 0-44.8-18.948-44.8-50.933v-288.382c0-31.985 20.098-44.685 44.8-44.685s44.8 12.7 44.8 44.685v288.382c0 31.986-20.098 50.933-44.8 50.933zM543.67 703.693c-8.348 8.331-19.893 13.107-31.67 13.107-11.778 0-23.323-4.777-31.684-13.119-8.336-8.338-13.116-19.884-13.116-31.681 0-11.777 4.777-23.322 13.127-31.69 8.348-8.332 19.893-13.11 31.673-13.11 11.778 0 23.323 4.778 31.69 13.129 8.332 8.348 13.11 19.893 13.11 31.671 0 11.797-4.78 23.344-13.13 31.693z" />
<glyph unicode="&#xe920;" glyph-name="location" data-tags="location" d="M512 896c-176.448 0-320-141.309-320-315 0-58.684 16.514-115.955 47.767-165.641l254.018-402.95c4.866-7.719 13.438-12.409 22.658-12.409 0.071 0 0.14 0 0.212 0 9.3 0.072 17.89 4.907 22.667 12.761l247.543 406.854c29.529 48.636 45.136 104.442 45.136 161.385 0 173.691-143.552 315-320 315zM741.095 446.568l-225.056-369.894-230.942 366.345c-26.014 41.356-40.119 89.068-40.119 137.98 0 144.742 119.982 262.85 267.022 262.85s266.844-118.108 266.844-262.85c0-47.462-13.175-93.954-37.749-134.432zM512 738.5c-88.224 0-160-70.654-160-157.5 0-86.291 70.608-157.5 160-157.5 90.494 0 160 72.158 160 157.5 0 86.846-71.776 157.5-160 157.5zM512 475.65c-59.124 0-107.022 47.308-107.022 105.35 0 57.897 48.206 105.35 107.022 105.35s106.844-47.453 106.844-105.35c0-57.195-46.784-105.35-106.844-105.35z" />
<glyph unicode="&#xe921;" glyph-name="nav-chat-fill" data-tags="nav-chat-fill" d="M782.131 825.6c80.433 0 145.869-65.057 145.869-145.021v-363.293c0-73.774-55.692-134.858-127.48-143.873v-144.409c0-11.734-7.109-22.305-18.011-26.793-3.608-1.487-7.398-2.211-11.156-2.211-7.595 0-15.054 2.944-20.636 8.497l-164.729 163.767-344.118 0.002c-80.433 0-145.869 65.054-145.869 145.019v363.293c0 79.965 65.436 145.021 145.869 145.021h540.262zM345.6 441.6c24.742 0 44.8 20.058 44.8 44.8s-20.058 44.8-44.8 44.8c-24.742 0-44.8-20.058-44.8-44.8s20.058-44.8 44.8-44.8zM512 441.6c24.742 0 44.8 20.058 44.8 44.8s-20.058 44.8-44.8 44.8c-24.742 0-44.8-20.058-44.8-44.8s20.058-44.8 44.8-44.8zM678.4 441.6c24.742 0 44.8 20.058 44.8 44.8s-20.058 44.8-44.8 44.8c-24.742 0-44.8-20.058-44.8-44.8s20.058-44.8 44.8-44.8z" />
<glyph unicode="&#xe922;" glyph-name="nav-chat" data-tags="nav-chat" d="M782.131 825.6h-540.262c-80.433 0-145.869-65.057-145.869-145.021v-363.293c0-79.965 65.436-145.019 145.869-145.019l344.118-0.002 164.729-163.767c5.583-5.552 13.042-8.497 20.636-8.497 3.758 0 7.548 0.724 11.156 2.211 10.902 4.487 18.011 15.059 18.011 26.793v144.409c71.789 9.014 127.48 70.099 127.48 143.873v363.293c0 79.965-65.436 145.021-145.869 145.021zM882.56 317.283c0-47.979-52.169-99.683-100.429-99.683h-10.785c-15.639 0-26.066-13.105-26.066-29.12v-99.2l-126.579 119.68c-5.471 5.441-12.888 8.64-20.629 8.64h-356.203c-48.26 0-100.429 51.704-100.429 99.683v363.293c0 47.979 52.169 100.224 100.429 100.224h540.262c48.261 0 100.429-52.244 100.429-100.224v-363.293zM345.6 441.6c24.742 0 44.8 20.058 44.8 44.8s-20.058 44.8-44.8 44.8c-24.742 0-44.8-20.058-44.8-44.8s20.058-44.8 44.8-44.8zM512 441.6c24.742 0 44.8 20.058 44.8 44.8s-20.058 44.8-44.8 44.8c-24.742 0-44.8-20.058-44.8-44.8s20.058-44.8 44.8-44.8zM678.4 441.6c24.742 0 44.8 20.058 44.8 44.8s-20.058 44.8-44.8 44.8c-24.742 0-44.8-20.058-44.8-44.8s20.058-44.8 44.8-44.8z" />
<glyph unicode="&#xe923;" glyph-name="nav-heart-fill" data-tags="nav-heart-fill" d="M863.13 756.558c-43.81 48.648-102.411 75.441-165.012 75.441-61.636 0-119.589-26.066-163.184-73.403l-22.5-24.446-22.521 24.453c-43.592 47.332-101.533 73.397-163.152 73.397-61.638 0-119.589-26.066-163.178-73.397-43.582-47.319-67.584-110.236-67.584-177.162s24.001-129.842 67.584-177.162l288.408-313.148c16.661-18.087 38.54-27.131 60.424-27.131 21.879 0.002 43.763 9.044 60.419 27.129l286.551 311.105c90.001 97.725 91.681 256.671 3.744 354.324z" />
<glyph unicode="&#xe924;" glyph-name="nav-heart" data-tags="nav-heart" d="M863.13 756.558c-43.81 48.648-102.411 75.441-165.012 75.441-61.636 0-119.589-26.066-163.184-73.403l-17.731-19.824c-2.356-2.635-6.402-2.86-9.037-0.504-0.177 0.158-0.344 0.326-0.502 0.502l-17.75 19.833c-43.592 47.332-101.533 73.397-163.152 73.397-61.638 0-119.589-26.066-163.178-73.397-43.582-47.319-67.584-110.236-67.584-177.162s24.001-129.842 67.584-177.162l288.408-313.148c16.661-18.087 38.54-27.131 60.424-27.131 21.879 0.002 43.763 9.044 60.419 27.129l286.551 311.105c90.001 97.725 91.681 256.671 3.744 354.324zM829.172 435.038l-286.549-311.108c-16.658-18.085-43.763-18.085-60.419 0.002l-288.41 313.153c-35.513 38.557-55.070 89.824-55.070 144.358s19.557 105.801 55.070 144.36c35.519 38.568 82.742 59.808 132.967 59.808 50.206 0 97.419-21.24 132.94-59.808l38.667-39.756c7.393-7.601 19.549-7.77 27.15-0.377 0.093 0.091 0.186 0.182 0.277 0.275l39.35 39.86c35.521 38.568 82.742 59.808 132.967 59.808 51.007 0 98.759-21.836 134.464-61.484 71.656-79.569 70.127-209.253-3.404-289.090z" />
<glyph unicode="&#xe925;" glyph-name="nav-home-fill" data-tags="nav-home-fill" d="M870.396 486.286v-300.544c0-84.594-68.372-153.742-152.215-153.742h-412.369c-83.754 0-152.213 69.059-152.213 153.742v300.544c0 39.204 14.766 76.153 39.48 102.921 1.281 1.65 1.281 1.65 2.461 2.966 18.957 19.828 56.56 58.769 116.25 120.461l108.892 112.481c50.165 51.849 132.464 51.849 182.642-0.012l108.636-112.473c14.789-15.286 14.789-15.286 30.054-31.067 26.062-26.943 51.605-53.358 84.602-87.484 1.063-1.033 2.147-2.188 3.19-3.534 26.13-28.291 40.862-65.245 40.59-104.26zM511.997 199.854c80.879 0 146.285 66.154 146.285 147.76 0 81.522-65.574 147.757-146.285 147.757s-146.286-66.234-146.286-147.757c0-81.526 65.574-147.76 146.286-147.76z" />
<glyph unicode="&#xe926;" glyph-name="nav-home" data-tags="nav-home" d="M870.396 486.286v-300.544c0-84.594-68.372-153.742-152.215-153.742h-412.369c-83.754 0-152.213 69.059-152.213 153.742v300.544c0 39.204 14.766 76.153 39.48 102.921 1.281 1.65 1.281 1.65 2.461 2.966 18.957 19.828 56.56 58.769 116.25 120.461l108.892 112.481c50.165 51.849 132.464 51.849 182.642-0.012l108.636-112.473c14.789-15.286 14.789-15.286 30.054-31.067 26.062-26.943 51.605-53.358 84.602-87.484 1.063-1.033 2.147-2.188 3.19-3.534 26.13-28.291 40.862-65.245 40.59-104.26zM800.498 564.193l-2.079 2.631c-32.86 33.699-58.402 60.111-84.389 86.978-15.336 15.854-15.336 15.854-30.135 31.15l-108.636 112.473c-34.778 35.945-91.747 35.945-126.528-0.004l-108.892-112.481c-59.605-61.605-97.202-100.54-114.733-118.882-0.817-0.837-0.817-0.837-1.954-2.203-19.389-21.125-30.328-48.497-30.328-77.568v-300.544c0-62.791 50.886-114.123 112.988-114.123h412.369c62.168 0 112.99 51.398 112.99 114.123v300.683c0.204 29.173-10.889 56.683-30.674 77.768zM511.997 239.473c59.204 0 107.060 48.404 107.060 108.14 0 59.641-48.013 108.138-107.060 108.138-59.049 0-107.062-48.496-107.062-108.138 0-59.645 48.012-108.14 107.062-108.14zM511.997 199.854c-80.713 0-146.286 66.234-146.286 147.76 0 81.523 65.574 147.757 146.286 147.757 80.71 0 146.285-66.234 146.285-147.757 0-81.606-65.406-147.76-146.285-147.76z" />
<glyph unicode="&#xe927;" glyph-name="nav-roomate-fill" data-tags="nav-roomate-fill" d="M559.182 92.8h-399.972c-66.584 0-112.022 68.747-89.282 132.951 44.387 125.319 159.036 210.416 289.269 210.416s244.879-85.099 289.262-210.415c22.745-64.204-22.69-132.952-89.278-132.952zM532.839 630.071c0-95.617-77.742-173.129-173.644-173.129-95.9 0-173.644 77.513-173.644 173.129 0 95.618 77.743 173.129 173.644 173.129 95.903 0 173.644-77.51 173.644-173.129zM655.849 309.592c-7.782-8.453-20.964-9.015-29.441-1.256s-9.042 20.901-1.26 29.354c37.317 40.532 88.071 63.851 142.312 63.851 85.758 0 160.47-56.43 188.638-140.029 15.162-44.994-15.615-93.439-61.831-93.802l-206.93-1.624c-11.508-0.090-20.91 9.138-21.001 20.611s9.165 20.848 20.673 20.938l206.929 1.624c16.655 0.131 29.138 19.78 22.654 39.020-22.595 67.060-81.711 111.71-149.133 111.71-42.29 0-82.012-18.251-111.611-50.399zM890.546 560.82c0-72.668-59.086-131.578-131.971-131.578-72.882 0-131.968 58.911-131.968 131.578s59.086 131.578 131.968 131.578c72.885 0 131.971-58.91 131.971-131.578zM852.84 560.82c0 51.905-42.205 93.984-94.265 93.984-52.058 0-94.263-42.079-94.263-93.984s42.204-93.984 94.263-93.984c52.060 0 94.265 42.079 94.265 93.984z" />
<glyph unicode="&#xe928;" glyph-name="nav-roomate" data-tags="nav-roomate" d="M559.182 92.8h-399.972c-66.584 0-112.022 68.747-89.282 132.951 44.387 125.319 159.036 210.416 289.269 210.416s244.879-85.099 289.262-210.415c22.745-64.204-22.69-132.952-89.278-132.952zM559.182 134.845c36.755 0 62.799 39.407 49.515 76.906-38.562 108.883-137.569 182.372-249.499 182.372-111.933 0-210.94-73.488-249.506-182.372-13.281-37.496 12.766-76.905 49.518-76.905h399.972zM532.839 630.071c0-95.617-77.742-173.129-173.644-173.129-95.9 0-173.644 77.513-173.644 173.129 0 95.618 77.743 173.129 173.644 173.129 95.903 0 173.644-77.51 173.644-173.129zM495.629 630.071c0 75.129-61.082 136.030-136.435 136.030-75.351 0-136.435-60.901-136.435-136.030 0-75.127 61.084-136.030 136.435-136.030 75.352 0 136.435 60.902 136.435 136.030zM655.849 309.592c-7.782-8.453-20.964-9.015-29.441-1.256s-9.042 20.901-1.26 29.354c37.317 40.532 88.071 63.851 142.312 63.851 85.758 0 160.47-56.43 188.638-140.029 15.162-44.994-15.615-93.439-61.831-93.802l-206.93-1.624c-11.508-0.090-20.91 9.138-21.001 20.611s9.165 20.848 20.673 20.938l206.929 1.624c16.655 0.131 29.138 19.78 22.654 39.020-22.595 67.060-81.711 111.71-149.133 111.71-42.29 0-82.012-18.251-111.611-50.399zM890.546 560.82c0-72.668-59.086-131.578-131.971-131.578-72.882 0-131.968 58.911-131.968 131.578s59.086 131.578 131.968 131.578c72.885 0 131.971-58.91 131.971-131.578zM852.84 560.82c0 51.905-42.205 93.984-94.265 93.984-52.058 0-94.263-42.079-94.263-93.984s42.204-93.984 94.263-93.984c52.060 0 94.265 42.079 94.265 93.984z" />
<glyph unicode="&#xe929;" glyph-name="parking-fill" data-tags="parking-fill" d="M802.637 836.5h-186.912c-20.28 35.453-59.164 59.5-103.725 59.5s-83.444-24.047-103.725-59.5h-186.912c-16.191 0-29.363-12.822-29.363-28.583v-54.833c0-15.762 13.172-28.584 29.363-28.584h186.912c7.57-13.235 17.737-24.868 29.825-34.265-116.892-31.552-202.954-136.038-202.954-259.735v-248.5c0-48.248 40.324-87.5 89.888-87.5h111.689v-21c0-40.528 33.871-73.5 75.506-73.5s75.506 32.972 75.506 73.5v21h111.232c49.564 0 89.888 39.252 89.888 87.5v55.417c0 9.665-8.050 17.5-17.978 17.5s-17.978-7.835-17.978-17.5v-55.417c0-28.948-24.194-52.5-53.933-52.5h-111.232v21.583h12.056c34.118 0 61.873 27.018 61.873 60.23 0 74.407-57.611 135.923-131.685 144.599v176.671c0 9.665-8.050 17.5-17.978 17.5s-17.978-7.835-17.978-17.5v-176.671c-74.075-8.677-131.685-70.193-131.685-144.599 0-33.212 27.756-60.23 61.873-60.23h12.512v-21.583h-111.689c-29.738 0-53.933 23.552-53.933 52.5v248.5c0 129.304 108.067 234.5 240.899 234.5s240.899-105.196 240.899-234.5v-42.583c0-9.665 8.050-17.5 17.978-17.5s17.978 7.835 17.978 17.5v42.583c0 123.697-86.062 228.183-202.956 259.735 12.088 9.396 22.254 21.030 29.825 34.265h186.912c16.192 0 29.364 12.822 29.364 28.583v54.834c0 15.761-13.172 28.583-29.363 28.583zM260.315 759.5h-32.36v42h32.36v-42zM551.779 73.5c0-21.229-17.742-38.5-39.551-38.5s-39.551 17.271-39.551 38.5v77.583h79.101v-77.583zM512 700c-45.598 0-82.697 36.113-82.697 80.5s37.098 80.5 82.697 80.5c45.598 0 82.697-36.113 82.697-80.5s-37.098-80.5-82.697-80.5zM796.045 759.5h-32.36v42h32.36v-42zM783.585 322.122c3.346-3.255 5.269-7.77 5.269-12.372s-1.925-9.118-5.269-12.372c-3.342-3.255-7.98-5.128-12.708-5.128s-9.364 1.872-12.71 5.128c-3.346 3.255-5.267 7.77-5.267 12.372s1.924 9.118 5.267 12.372c3.344 3.255 7.982 5.128 12.71 5.128s9.366-1.872 12.708-5.128zM524.708 613.795c3.346-3.255 5.269-7.77 5.269-12.373 0-4.62-1.925-9.117-5.269-12.372-3.342-3.272-7.98-5.128-12.708-5.128s-9.366 1.855-12.71 5.128c-3.346 3.255-5.267 7.752-5.267 12.372 0 4.603 1.924 9.118 5.267 12.373s7.982 5.127 12.71 5.127c4.728 0 9.366-1.872 12.708-5.127zM512 836.792c31.887 0 57.828-25.252 57.828-56.292 0-9.665-8.050-17.5-17.978-17.5s-17.978 7.835-17.978 17.5c0 11.741-9.812 21.292-21.873 21.292-9.927 0-17.978 7.835-17.978 17.5s8.050 17.5 17.978 17.5z" />
<glyph unicode="&#xe92a;" glyph-name="parking" data-tags="parking" d="M802.637 836.5h-186.912c-20.28 35.453-59.164 59.5-103.725 59.5s-83.444-24.047-103.725-59.5h-186.912c-16.191 0-29.363-12.822-29.363-28.583v-54.833c0-15.762 13.172-28.584 29.363-28.584h186.912c7.57-13.235 17.737-24.868 29.825-34.265-116.892-31.552-202.954-136.038-202.954-259.735v-248.5c0-48.248 40.324-87.5 89.888-87.5h111.689v-21c0-40.528 33.871-73.5 75.506-73.5s75.506 32.972 75.506 73.5v21h111.232c49.564 0 89.888 39.252 89.888 87.5v55.417c0 9.665-8.050 17.5-17.978 17.5s-17.978-7.835-17.978-17.5v-55.417c0-28.948-24.194-52.5-53.933-52.5h-111.232v21.583h12.056c34.118 0 61.873 27.018 61.873 60.23 0 74.407-57.611 135.923-131.685 144.599v176.671c0 9.665-8.050 17.5-17.978 17.5s-17.978-7.835-17.978-17.5v-176.671c-74.075-8.677-131.685-70.193-131.685-144.599 0-33.212 27.756-60.23 61.873-60.23h12.512v-21.583h-111.689c-29.738 0-53.933 23.552-53.933 52.5v248.5c0 129.304 108.067 234.5 240.899 234.5s240.899-105.196 240.899-234.5v-42.583c0-9.665 8.050-17.5 17.978-17.5s17.978 7.835 17.978 17.5v42.583c0 123.697-86.062 228.183-202.956 259.735 12.088 9.396 22.254 21.030 29.825 34.265h186.912c16.192 0 29.364 12.822 29.364 28.583v54.834c0 15.761-13.172 28.583-29.363 28.583zM260.315 759.5h-32.36v42h32.36v-42zM395.349 759.5h-99.080v42h99.080c-1.291-6.815-2.001-13.827-2.001-21s0.71-14.185 2.001-21zM551.779 73.5c0-21.229-17.742-38.5-39.551-38.5s-39.551 17.271-39.551 38.5v77.583h79.101v-77.583zM424.21 186.083c-14.29 0-25.918 11.319-25.918 25.23 0 61.033 51.009 110.688 113.708 110.688s113.708-49.654 113.708-110.688c0-13.911-11.628-25.23-25.918-25.23h-175.579zM512 700c-45.598 0-82.697 36.113-82.697 80.5s37.098 80.5 82.697 80.5c45.598 0 82.697-36.113 82.697-80.5s-37.098-80.5-82.697-80.5zM727.73 759.5h-99.080c1.293 6.815 2.001 13.827 2.001 21s-0.71 14.185-2.001 21h99.080v-42zM796.045 759.5h-32.36v42h32.36v-42zM783.585 322.122c3.346-3.255 5.269-7.77 5.269-12.372s-1.925-9.118-5.269-12.372c-3.342-3.255-7.98-5.128-12.708-5.128s-9.364 1.872-12.71 5.128c-3.346 3.255-5.267 7.77-5.267 12.372s1.924 9.118 5.267 12.372c3.344 3.255 7.982 5.128 12.71 5.128s9.366-1.872 12.708-5.128zM524.708 613.795c3.346-3.255 5.269-7.77 5.269-12.373 0-4.62-1.925-9.117-5.269-12.372-3.342-3.272-7.98-5.128-12.708-5.128s-9.366 1.855-12.71 5.128c-3.346 3.255-5.267 7.752-5.267 12.372 0 4.603 1.924 9.118 5.267 12.373s7.982 5.127 12.71 5.127c4.728 0 9.366-1.872 12.708-5.127zM512 836.792c31.887 0 57.828-25.252 57.828-56.292 0-9.665-8.050-17.5-17.978-17.5s-17.978 7.835-17.978 17.5c0 11.741-9.812 21.292-21.873 21.292-9.927 0-17.978 7.835-17.978 17.5s8.050 17.5 17.978 17.5z" />
<glyph unicode="&#xe92b;" glyph-name="pets-fill" data-tags="pets-fill" d="M705.831 329.148c31.127-24.548 48.956-61.253 48.956-100.86 0-45.034-21.597-84.178-58.848-108.797-35.033-23.151-77.469-29.087-116.132-18.262-20.204 5.653-43.65 8.642-67.805 8.642-23.754 0-46.859-2.893-66.821-8.363-39.833-10.924-82.362-4.058-116.676 18.839-36.828 24.571-58.058 63.349-58.058 107.94 0 36.476 15.597 71.364 42.792 95.719 0.052 0.047 0.105 0.095 0.159 0.141 0.443 0.387 46.55 41.361 80.3 118.786 20.009 48.018 66.518 79.035 118.529 79.035 52.022 0 98.538-31.013 118.542-79.020 26.901-61.699 61.001-99.744 75.062-113.801zM572 409.928c-8.28 0-15-6.721-15-15.003s6.72-15.003 15-15.003c8.28 0 15 6.721 15 15.003s-6.72 15.003-15 15.003zM612.861 350.2c-4.521 6.942-13.812 8.909-20.756 4.385s-8.906-13.819-4.385-20.761c22.826-35.052 44.468-58.397 55.34-69.193 5.877-5.836 15.375-5.805 21.215 0.077 5.837 5.88 5.802 15.38-0.076 21.219-10.026 9.956-30.027 31.544-51.338 64.274zM463.386 595.113c-47.51-83.008-145.599-34.273-158.036 71.117-3.927 33.171 2.082 66.638 16.487 91.816 13.802 24.106 33.761 38.845 56.21 41.502 49.715 5.971 94.212-48.090 101.826-112.623 3.936-33.147-2.073-66.614-16.487-91.812zM319.704 433.747c-4.608-28.397-19.374-50.355-41.577-61.828-23.601-12.196-50.34-9.983-74.475 1.857-24.32 11.931-45.383 33.346-59.313 60.304-13.923 26.962-19.2 56.533-14.858 83.275 4.611 28.397 19.374 50.351 41.574 61.824 22.2 11.482 48.651 10.828 74.48-1.844 24.32-11.931 45.383-33.351 59.312-60.316 13.923-26.959 19.2-56.532 14.858-83.272zM624.498 552.888c-53.931 0-88.052 66.085-80.055 133.743 7.499 63.394 49.004 113.053 94.484 113.053 54.038 0 88.058-66.208 80.070-133.743-7.517-63.396-49.026-113.053-94.499-113.053zM894.521 517.295c8.985-55.338-23.862-118.899-74.171-143.58-53.118-26.064-106.454 0.848-116.052 59.971-8.987 55.344 23.876 118.912 74.169 143.589 53.759 26.385 106.568-1.548 116.054-59.98z" />
<glyph unicode="&#xe92c;" glyph-name="pets" data-tags="pets" d="M705.831 329.148c31.127-24.548 48.956-61.253 48.956-100.86 0-45.034-21.597-84.178-58.848-108.797-35.033-23.151-77.469-29.087-116.132-18.262-20.204 5.653-43.65 8.642-67.805 8.642-23.754 0-46.859-2.893-66.821-8.363-39.833-10.924-82.362-4.058-116.676 18.839-36.828 24.571-58.058 63.349-58.058 107.94 0 36.476 15.597 71.364 42.792 95.719 0.052 0.047 0.105 0.095 0.159 0.141 0.443 0.387 46.55 41.361 80.3 118.786 20.009 48.018 66.518 79.035 118.529 79.035 52.022 0 98.538-31.013 118.542-79.020 26.901-61.699 61.001-99.744 75.062-113.801zM572 409.928c8.28 0 15-6.721 15-15.003s-6.72-15.003-15-15.003c-8.28 0-15 6.721-15 15.003s6.72 15.003 15 15.003zM679.397 144.526c28.691 18.96 45.389 48.855 45.386 83.763 0 30.59-13.889 58.929-38.108 77.751-0.474 0.369-0.927 0.768-1.356 1.191-14.898 14.772-52.725 56.406-82.104 123.845-0.033 0.078-0.068 0.156-0.099 0.234-15.308 36.845-50.985 60.653-90.894 60.652-39.894 0-75.564-23.813-90.876-60.667-0.032-0.078-0.066-0.156-0.099-0.234-36.18-83.065-84.858-126.655-88.059-129.462-20.81-18.667-32.744-45.383-32.744-73.31 0-34.62 16.431-64.115 44.706-82.981 27.081-18.070 60.648-23.487 92.097-14.862 22.511 6.169 48.357 9.431 74.751 9.431 26.849 0 53.090-3.371 75.891-9.752 31.121-8.712 64.473-3.464 91.508 14.402zM612.861 350.2c21.311-32.729 41.312-54.318 51.338-64.274 5.879-5.839 5.913-15.339 0.076-21.219-5.84-5.881-15.338-5.913-21.215-0.077-10.872 10.796-32.514 34.141-55.34 69.193-4.521 6.942-2.559 16.236 4.385 20.761 6.944 4.523 16.235 2.557 20.756-4.385zM463.386 595.113c-47.51-83.008-145.599-34.273-158.036 71.117-3.927 33.171 2.082 66.638 16.487 91.816 13.802 24.106 33.761 38.845 56.21 41.502 49.715 5.971 94.212-48.090 101.826-112.623 3.936-33.147-2.073-66.614-16.487-91.812zM347.874 743.141c-11.277-19.713-15.92-46.462-12.732-73.388 8.169-69.214 67.638-120.144 102.209-59.735 11.286 19.729 15.927 46.475 12.732 73.381-5.538 46.93-35.157 86.567-64.679 86.567-16.511 0-29.319-12.477-37.53-26.824zM319.704 433.747c-4.608-28.397-19.374-50.355-41.577-61.828-23.601-12.196-50.34-9.983-74.475 1.857-24.32 11.931-45.383 33.346-59.313 60.304-13.923 26.962-19.2 56.533-14.858 83.275 4.611 28.397 19.374 50.351 41.574 61.824 22.2 11.482 48.651 10.828 74.48-1.844 24.32-11.931 45.383-33.351 59.312-60.316 13.923-26.959 19.2-56.532 14.858-83.272zM264.359 398.578c13.547 7 22.688 21.196 25.736 39.977 3.318 20.434-0.909 43.409-11.9 64.691-10.997 21.287-27.287 38.032-45.87 47.149-15.162 7.439-32.511 9.875-47.49 2.129-0.002-0.002-0.003-0.002-0.005-0.003-13.547-7-22.688-21.195-25.737-39.976-3.318-20.436 0.909-43.407 11.9-64.689 10.997-21.279 27.287-38.023 45.872-47.14 17.084-8.381 33.95-9.141 47.495-2.138zM624.498 552.888c-53.931 0-88.052 66.085-80.055 133.743 7.499 63.394 49.004 113.053 94.484 113.053 54.038 0 88.058-66.208 80.070-133.743-7.517-63.396-49.026-113.053-94.499-113.053zM574.236 683.107c-2.961-25.055 1.028-50.561 10.946-69.978 8.916-17.464 21.854-28.401 35.493-30.006 0.056-0.008 0.111-0.015 0.167-0.021 30.384-3.944 62.601 37.754 68.366 86.37 2.961 25.048-1.029 50.55-10.95 69.966-7.293 14.276-19.674 28.257-35.669 30.035-1.073 0.14-2.27 0.207-3.659 0.207-29.516 0-59.141-39.646-64.694-86.573zM894.521 517.295c8.985-55.338-23.862-118.899-74.171-143.58-53.118-26.064-106.454 0.848-116.052 59.971-8.987 55.344 23.876 118.912 74.169 143.589 53.759 26.385 106.568-1.548 116.054-59.98zM807.138 400.656c38.585 18.928 64.617 69.666 57.771 111.831-6.311 38.864-37.935 55.17-73.23 37.852-38.514-18.903-64.629-69.6-57.771-111.843 3.048-18.778 12.189-32.977 25.736-39.979v0.002c13.547-6.999 30.413-6.241 47.495 2.138z" />
<glyph unicode="&#xe92d;" glyph-name="plus-fill" data-tags="plus-fill" d="M512-0.029c-247.036 0-448 200.993-448 448.029s200.964 448 448 448c247.036 0 448-200.964 448-448 0.029-247.036-200.964-448.029-448-448.029zM511.333 224c15.601 0 28.183 12.653 28.183 28.341v164.617h166.3c16.67 0 30.184 13.59 30.184 30.354s-13.514 30.354-30.184 30.354h-166.3v165.959c0 15.657-12.614 28.373-28.183 28.373s-28.214-12.717-28.214-28.373v-165.959h-164.934c-16.67 0-30.184-13.59-30.184-30.354s13.514-30.354 30.184-30.354h164.934v-164.617c0-15.657 12.646-28.341 28.214-28.341z" />
<glyph unicode="&#xe92e;" glyph-name="plus" data-tags="plus" d="M512-0.029c-247.036 0-448 200.993-448 448.029s200.964 448 448 448c247.036 0 448-200.964 448-448 0.029-247.036-200.964-448.029-448-448.029zM512 844.821c-218.822 0-396.821-178.029-396.821-396.821s178-396.793 396.821-396.793c218.793 0 396.793 178 396.793 396.793s-178 396.821-396.793 396.821zM511.333 224c-15.569 0-28.214 12.685-28.214 28.341v164.617h-164.934c-16.67 0-30.184 13.59-30.184 30.354s13.514 30.354 30.184 30.354h164.934v165.959c0 15.657 12.646 28.373 28.214 28.373s28.183-12.717 28.183-28.373v-165.959h166.3c16.67 0 30.184-13.59 30.184-30.354s-13.514-30.354-30.184-30.354h-166.3v-164.617c0-15.688-12.582-28.341-28.183-28.341z" />
<glyph unicode="&#xe92f;" glyph-name="private-fill" data-tags="private-fill" d="M364.802 222.708c10.397 8.31 22.519 12.641 39.47 12.641h280.007c10.189 0 114.563 97.588 148.28 135.416 16.709 18.718 72.275 105.077 92.848 146.52-12.309 8.954-34.563 13.521-57.573 8.171-27.636-6.407-45.648-25.201-69.574-71.756-1.483-2.886-3.824-5.242-6.701-6.745l-74.312-38.815c11.447-37.687-12.876-84.243-72.969-84.243h-160.004c-8.679 0-15.715 7.034-15.715 15.71s7.036 15.71 15.715 15.71h160.004c59.049 0 59.049 68.555 0 68.555h-105.683c-7.776 0-14.878 3.106-23.58 8.845-2.899 1.912-5.932 4.095-9.752 6.974-1.832 1.381-8.383 6.397-9.661 7.365-7.894 5.981-13.36 9.73-18.518 12.518-5.4 2.92-9.693 4.287-12.812 4.287h-100.002c-19.118 0-48.326-15.564-68.89-34.689-7.954-7.952-17.753-17.772-28.985-29.045-11.339-11.381-23.24-23.338-35.131-35.296-1.632-1.642-3.054-3.072-4.3-4.325l137.838-137.8zM387.324 200.192l1.665-1.664c20.717-20.712 20.717-54.273 0-74.985l-47.221-47.208c-20.717-20.712-54.288-20.712-75.005 0l-187.225 187.174c-20.717 20.712-20.717 54.273 0 74.985l47.221 47.208c20.717 20.712 54.288 20.712 75.005 0l2.976-2.975c1.23 1.238 2.632 2.647 4.236 4.26 11.898 11.964 23.805 23.928 34.932 35.096 11.466 11.507 21.278 21.34 29.653 29.699 26.23 24.411 62.055 43.502 90.71 43.502h100.002c9.121 0 18.167-2.881 27.764-8.071 6.908-3.735 13.473-8.238 22.548-15.114 18.132-13.738 22.783-16.806 24.009-16.806h105.683c25.071 0 43.916-8.104 56.535-20.286l71.806 37.506c26.773 50.899 50.533 74.838 88.104 83.548 39.271 9.132 78.799-2.694 96.178-26.090 3.332-4.485 4.030-10.402 1.834-15.54-16.663-38.983-82.35-141.76-102.72-164.579-45.158-50.666-147.041-145.924-171.737-145.924h-280.007c-7.637 0-12.64-1.151-16.947-3.736zM335.382 608.43c-2.947-2.946-6.944-4.601-11.112-4.601h-60.001c-5.254 0-10.161 2.625-13.075 6.996l-40.001 59.985c-4.155 6.231-3.333 14.528 1.963 19.824l60.001 59.985c2.954 2.953 6.962 4.609 11.139 4.601l236.583-0.402c24.037 49.22 74.552 80.383 132.16 80.383 81.562 0 146.958-63.665 146.958-144.439 0-81.139-65.797-146.918-146.958-146.918-47.323 0-90.694 22.683-118.133 59.985h-50.631c-4.168 0-8.165 1.655-11.112 4.601l-8.889 8.886-8.889-8.886c-2.947-2.946-6.944-4.601-11.112-4.601h-40.001c-4.168 0-8.165 1.655-11.112 4.601l-15.398 15.394h-26.983l-15.398-15.394zM674.278 719.514c-16.58 0-30.001-13.437-30.001-29.993s13.42-29.993 30.001-29.993c16.58 0 30.001 13.437 30.001 29.993s-13.42 29.993-30.001 29.993zM366.765 145.76l-47.221-47.208c-8.443-8.441-22.114-8.441-30.557 0l-187.225 187.174c-8.443 8.441-8.443 22.108 0 30.549l47.221 47.208c8.443 8.441 22.114 8.441 30.557 0l187.225-187.174c8.443-8.441 8.443-22.108 0-30.549z" />
<glyph unicode="&#xe930;" glyph-name="private" data-tags="private" d="M226.964 360.508l137.838-137.8c10.397 8.31 22.519 12.641 39.47 12.641h280.007c10.189 0 114.563 97.588 148.28 135.416 16.709 18.718 72.275 105.077 92.848 146.52-12.309 8.954-34.563 13.521-57.573 8.171-27.636-6.407-45.648-25.201-69.574-71.756-1.483-2.886-3.824-5.242-6.701-6.745l-74.312-38.815c11.447-37.687-12.876-84.243-72.969-84.243h-160.004c-8.679 0-15.715 7.034-15.715 15.71s7.036 15.71 15.715 15.71h160.004c59.049 0 59.049 68.555 0 68.555h-105.683c-7.776 0-14.878 3.106-23.58 8.845-2.899 1.912-5.932 4.095-9.752 6.974-1.832 1.381-8.383 6.397-9.661 7.365-7.894 5.981-13.36 9.73-18.518 12.518-5.4 2.92-9.693 4.287-12.812 4.287h-100.002c-19.118 0-48.326-15.564-68.89-34.689-7.954-7.952-17.753-17.772-28.985-29.045-11.339-11.381-23.24-23.338-35.131-35.296-1.632-1.642-3.054-3.072-4.3-4.325zM204.74 382.726c1.23 1.238 2.632 2.647 4.236 4.26 11.898 11.964 23.805 23.928 34.932 35.096 11.466 11.507 21.278 21.34 29.653 29.699 26.23 24.411 62.055 43.502 90.71 43.502h100.002c9.121 0 18.167-2.881 27.764-8.071 6.908-3.735 13.473-8.238 22.548-15.114 18.132-13.738 22.783-16.806 24.009-16.806h105.683c25.071 0 43.916-8.104 56.535-20.286l71.806 37.506c26.773 50.899 50.533 74.838 88.104 83.548 39.271 9.132 78.799-2.694 96.178-26.090 3.332-4.485 4.030-10.402 1.834-15.54-16.663-38.983-82.35-141.76-102.72-164.579-45.158-50.666-147.041-145.924-171.737-145.924h-280.007c-7.637 0-12.64-1.151-16.947-3.736l1.665-1.664c20.717-20.712 20.717-54.273 0-74.985l-47.221-47.208c-20.717-20.712-54.288-20.712-75.005 0l-187.225 187.174c-20.717 20.712-20.717 54.273 0 74.985l47.221 47.208c20.717 20.712 54.288 20.712 75.005 0l2.976-2.975zM190.327 352.7l-10.787 10.784c-8.443 8.441-22.114 8.441-30.557 0l-47.221-47.208c-8.443-8.441-8.443-22.108 0-30.549l187.225-187.174c8.443-8.441 22.114-8.441 30.557 0l47.221 47.208c8.443 8.441 8.443 22.108 0 30.549l-169.763 169.717c-1.37 0.714-2.656 1.644-3.81 2.789-1.18 1.172-2.135 2.485-2.865 3.884zM335.382 608.43c-2.947-2.946-6.944-4.601-11.112-4.601h-60.001c-5.254 0-10.161 2.625-13.075 6.996l-40.001 59.985c-4.155 6.231-3.333 14.528 1.963 19.824l60.001 59.985c2.954 2.953 6.962 4.609 11.139 4.601l236.583-0.402c24.037 49.22 74.552 80.383 132.16 80.383 81.562 0 146.958-63.665 146.958-144.439 0-81.139-65.797-146.918-146.958-146.918-47.323 0-90.694 22.683-118.133 59.985h-50.631c-4.168 0-8.165 1.655-11.112 4.601l-8.889 8.886-8.889-8.886c-2.947-2.946-6.944-4.601-11.112-4.601h-40.001c-4.168 0-8.165 1.655-11.112 4.601l-15.398 15.394h-26.983l-15.398-15.394zM290.767 723.788l-46.278-46.266 28.19-42.273h45.082l15.398 15.394c2.947 2.946 6.944 4.601 11.112 4.601h40.001c4.168 0 8.165-1.655 11.112-4.601l15.398-15.394h26.983l15.398 15.394c6.137 6.135 16.087 6.135 22.224 0l15.398-15.394h52.352c5.32 0 10.28-2.691 13.178-7.152 21.271-32.734 57.239-52.834 96.725-52.834 63.803 0 115.529 51.712 115.529 115.497 0 63.231-51.141 113.018-115.529 113.018-48.639 0-90.321-27.657-107.338-70.489-2.381-5.992-8.182-9.922-14.632-9.911l-240.301 0.409zM674.278 659.529c-16.58 0-30.001 13.437-30.001 29.993s13.42 29.993 30.001 29.993c16.58 0 30.001-13.437 30.001-29.993s-13.42-29.993-30.001-29.993z" />
<glyph unicode="&#xe931;" glyph-name="profile-fill" data-tags="profile-fill" d="M728.792 64h-433.581c-72.179 0-121.435 74.322-96.784 143.73 48.117 135.48 172.399 227.477 313.577 227.477 141.175 0 265.456-91.999 313.569-227.476 24.656-69.41-24.597-143.732-96.78-143.732zM700.235 644.834c0-103.369-84.274-187.166-188.235-187.166-103.959 0-188.235 83.798-188.235 187.166 0 103.37 84.275 187.166 188.235 187.166 103.962 0 188.235-83.795 188.235-187.166z" />
<glyph unicode="&#xe932;" glyph-name="profile" data-tags="profile" d="M728.792 64h-433.581c-72.179 0-121.435 74.322-96.784 143.73 48.117 135.48 172.399 227.477 313.577 227.477 141.175 0 265.456-91.999 313.569-227.476 24.656-69.41-24.597-143.732-96.78-143.732zM728.792 109.454c39.843 0 68.076 42.602 53.675 83.141-41.803 117.711-149.128 197.158-270.464 197.158-121.338 0-228.665-79.447-270.472-197.159-14.397-40.537 13.839-83.141 53.679-83.141h433.581zM700.235 644.834c0-103.369-84.274-187.166-188.235-187.166-103.959 0-188.235 83.798-188.235 187.166 0 103.37 84.275 187.166 188.235 187.166 103.962 0 188.235-83.795 188.235-187.166zM659.899 644.834c0 81.221-66.214 147.059-147.899 147.059-81.683 0-147.899-65.839-147.899-147.059 0-81.218 66.217-147.059 147.899-147.059 81.684 0 147.899 65.84 147.899 147.059z" />
<glyph unicode="&#xe933;" glyph-name="question" data-tags="question" d="M928 448c0-229.745-186.255-416-416-416s-416 186.255-416 416c0 229.746 186.254 416 416 416s416-186.254 416-416zM554.092 590.915c-10.779 13.312-28.667 19.968-53.591 19.969-30.859 0-52.189-11.459-63.988-34.339-2.74-5.276-4.399-12.282-4.979-21.017-0.67-10.089-9.048-17.929-19.159-17.929l-5.344 0.001c-0.635 0-1.27 0.032-1.902 0.094-10.552 1.051-18.255 10.457-17.205 21.009h0.001c2.141 21.504 8.676 38.898 19.606 52.181 21.458 26.079 55.606 43.188 94.937 43.188 36.382 0 65.502-10.362 87.398-31.162 21.897-20.8 32.826-47.349 32.826-79.645 0-19.59-4.047-35.473-12.064-47.651s-24.204-30.103-48.596-53.74c-17.737-17.208-29.234-31.729-34.49-43.642-2.624-5.946-4.155-17.299-4.592-34.058-0.271-10.405-8.784-18.698-19.192-18.698l-8.744-0.001c-10.364 0-18.858 8.225-19.192 18.583h0.002c-0.698 21.657 0.608 36.742 3.917 45.253 6.278 16.187 20.006 34.679 41.26 55.555l22.161 21.897c6.657 6.277 11.988 12.858 16.035 19.665 7.374 12.026 11.081 24.468 11.081 37.402 0 18.077-5.37 33.772-16.186 47.084zM133.818 448c0-208.87 169.312-378.182 378.182-378.182s378.182 169.312 378.182 378.182c0 208.87-169.312 378.182-378.182 378.182s-378.182-169.312-378.182-378.182zM488.39 299.526h16.739c10.604 0 19.2-8.596 19.2-19.2v-19.197c0-10.604-8.596-19.2-19.2-19.2h-16.739c-10.604 0-19.2 8.596-19.2 19.2v19.197c0 10.604 8.596 19.2 19.2 19.2z" />
<glyph unicode="&#xe934;" glyph-name="recent" data-tags="recent" d="M550.488 825.6c208.154 0 377.486-169.383 377.512-377.613 0-208.204-169.332-377.587-377.499-377.587-14.609 0-26.414 11.835-26.414 26.422s11.818 26.422 26.414 26.422c179.015 0 324.658 145.687 324.658 324.743 0 179.082-145.643 324.769-324.658 324.769-179.001 0-324.658-145.687-324.658-324.769-0.052-1.533-1.9-57.379 14.347-111.73l24.344 60.288c5.464 13.526 20.846 20.026 34.38 14.6 13.508-5.465 20.033-20.865 14.57-34.39l-47.404-117.404c-0.314-0.773-0.865-1.402-1.218-2.123-0.197-0.406-0.197-0.878-0.432-1.284-0.314-0.537-0.786-0.917-1.14-1.442-0.642-0.944-1.31-1.835-2.083-2.687-0.825-0.917-1.651-1.769-2.581-2.556-0.839-0.708-1.729-1.363-2.66-1.966-1.022-0.682-2.057-1.258-3.158-1.782-0.983-0.472-1.992-0.878-3.013-1.219-1.218-0.393-2.424-0.668-3.695-0.891-0.642-0.105-1.232-0.38-1.887-0.446-0.445-0.039-0.825 0.066-1.271 0.052-0.472-0.026-0.904-0.183-1.363-0.183-0.812 0-1.625 0.249-2.437 0.328-1.166 0.105-2.293 0.183-3.433 0.433-0.93 0.223-1.834 0.564-2.765 0.891-1.376 0.472-2.673 0.97-3.944 1.651-0.236 0.118-0.485 0.157-0.734 0.288l-119.164 69.489c-12.591 7.339-16.836 23.525-9.525 36.107 7.416 12.608 23.505 16.868 36.136 9.528l50.849-29.646c-15.605 59.056-13.705 113.892-13.548 117.182-0.026 207.142 169.319 376.525 377.473 376.525zM540.373 397.201c-0.052 0.013-0.105 0.013-0.157 0.026l-153.138 64.141c-13.43 5.636-19.784 21.114-14.15 34.574 5.647 13.473 21.055 19.816 34.59 14.168l136.773-57.3 152.404 152.437c10.338 10.328 27.043 10.328 37.354 0 10.324-10.328 10.324-27.038 0-37.366l-164.917-164.967c-0.406-0.406-0.943-0.537-1.35-0.891-1.861-1.638-3.878-2.975-6.066-4.024-0.773-0.38-1.52-0.799-2.319-1.088-2.869-1.048-5.87-1.756-8.962-1.756-0.59 0-1.166 0.315-1.756 0.354-2.843 0.197-5.647 0.59-8.307 1.691z" />
<glyph unicode="&#xe935;" glyph-name="reply" data-tags="reply" d="M903.393 483.712c-50.153 124.665-185.565 186.999-406.254 186.999h-103.998v118.786c0 8.048-2.942 15.009-8.82 20.884-5.882 5.878-12.84 8.818-20.891 8.818-8.053 0-15.018-2.94-20.896-8.818l-237.712-237.573c-5.879-5.883-8.82-12.841-8.82-20.884 0-8.042 2.942-14.999 8.82-20.879l237.713-237.579c5.885-5.872 12.85-8.822 20.896-8.822s15.008 2.948 20.891 8.822c5.88 5.874 8.82 12.836 8.82 20.881v118.795h103.998c30.326 0 57.483-0.923 81.469-2.776 23.984-1.858 47.831-5.183 71.499-9.984 23.684-4.794 44.271-11.362 61.76-19.722 17.486-8.36 33.815-19.106 48.983-32.248 15.171-13.155 27.552-28.767 37.153-46.87 9.588-18.099 17.096-39.511 22.516-64.26 5.409-24.751 8.126-52.748 8.126-83.984 0-17.010-0.779-36.041-2.322-57.075 0-1.848-0.384-5.485-1.163-10.902-0.769-5.417-1.158-9.511-1.158-12.29 0-4.634 1.314-8.503 3.94-11.598 2.638-3.091 6.277-4.634 10.918-4.634 4.953 0 9.282 2.625 13 7.887 2.16 2.781 4.165 6.186 6.033 10.211 1.859 4.016 3.952 8.654 6.267 13.915 2.327 5.261 3.952 8.96 4.875 11.13 39.304 88.149 58.962 157.904 58.962 209.258-0.003 61.552-8.201 113.064-24.607 154.511z" />
<glyph unicode="&#xe936;" glyph-name="search" data-tags="search" d="M917.812 91.089l-200.020 200.020c49.58 60.447 79.464 137.874 79.464 222.263 0 193.567-157.061 350.629-350.629 350.629-193.737 0-350.629-157.061-350.629-350.629s156.891-350.629 350.629-350.629c84.389 0 161.646 29.714 222.093 79.295l200.020-199.85c13.584-13.584 35.487-13.584 49.071 0 13.584 13.414 13.584 35.487 0 48.901zM446.629 232.529c-155.024 0-281.012 125.989-281.012 280.842s125.989 281.012 281.012 281.012c154.854 0 281.012-126.158 281.012-281.012s-126.158-280.842-281.012-280.842z" />
<glyph unicode="&#xe937;" glyph-name="security_guard-fill" data-tags="security_guard-fill" d="M812.985 279.351c16.625-24.349 25.412-52.778 25.415-82.217v-148.882c0-8.975-7.308-16.25-16.32-16.25h-293.738c-0.013 0-0.024-0.002-0.038-0.002-0.011 0-0.024 0.002-0.036 0.002h-32.537c-0.011 0-0.024-0.002-0.036-0.002s-0.024 0.002-0.038 0.002h-293.738c-9.012 0-16.32 7.275-16.32 16.25v148.898c0 29.432 8.782 57.858 25.4 82.2 16.619 24.346 39.933 42.942 67.424 53.776l119.728 47.19c-31.295 30.316-49.355 72.117-49.355 116.434 0 17.53 2.747 34.593 8.18 50.929-4.986 2.858-8.18 8.18-8.18 14.071v49.792l-28.483 56.724-27.775 13.827c-5.529 2.753-9.022 8.378-9.022 14.534v48.75c0 6.994 4.495 13.205 11.16 15.416l46.411 15.403 112.099 84.51c2.835 2.137 6.293 3.294 9.851 3.294h97.92c3.556 0 7.016-1.157 9.851-3.294l112.099-84.511 46.411-15.403c6.665-2.213 11.16-8.422 11.16-15.416v-48.752c0-6.154-3.491-11.781-9.022-14.534l-27.775-13.827-28.483-56.724v-49.788c0-5.891-3.197-11.214-8.181-14.071 5.43-16.341 8.181-33.407 8.181-50.929 0-44.319-18.061-86.122-49.368-116.447l119.718-47.175c27.496-10.837 50.815-29.432 67.437-53.778zM677.113 325.143l-81.435 32.089c-10.946-6.534-22.564-11.716-34.721-15.511v-23.72c0-17.085-8.88-32.134-22.278-40.843l28.806-38.246c6.311-8.364 9.792-18.756 9.792-29.25v-49.205l99.836 164.685zM381.438 599.126v-23.501c1.704-0.224 3.399-0.708 5.028-1.5 2.061-1.003 3.811-2.384 5.214-4.014l31.522-10.387c14.28-4.693 29.001-8.276 43.741-10.645 14.77-2.374 29.867-3.578 44.873-3.578 29.947 0 59.574 4.724 88.062 14.042l42.678 13.977v25.607h-261.119zM381.438 496.751c0-43.322 21.565-83.652 57.688-107.882 13.394-8.998 28.141-15.355 43.844-18.9 18.912-4.275 39.152-4.275 58.057 0 15.615 3.526 30.265 9.825 43.56 18.712 0.245 0.171 0.488 0.343 0.741 0.5 35.848 24.277 57.232 64.439 57.232 107.568 0 13.923-2.167 27.474-6.44 40.443l-26.047-8.526c-31.786-10.397-64.842-15.667-98.254-15.667-16.744 0-33.593 1.344-50.076 3.994-16.442 2.644-32.854 6.638-48.782 11.872l-25.090 8.27c-4.263-12.95-6.432-26.478-6.432-40.384zM528.318 335.072c-5.413-0.536-10.861-0.821-16.32-0.821s-10.907 0.284-16.32 0.821v-17.071c0-4.335 1.699-8.416 4.785-11.487 3.083-3.071 7.181-4.763 11.535-4.763 8.997 0 16.32 7.29 16.32 16.25v17.071zM428.301 357.248l-81.419-32.092 99.836-164.705v49.211c0 10.494 3.481 20.886 9.8 29.261l28.78 38.212c-2.82 1.836-5.475 3.968-7.915 6.396-9.252 9.212-14.345 21.453-14.345 34.469v23.722c-12.153 3.794-23.777 8.981-34.737 15.525zM218.238 64.502h248.522l-150.651 248.525-25.673-10.119c-43.858-17.285-72.198-58.797-72.198-105.758v-132.648zM658.877 134.376c9.009 0 16.32-7.28 16.32-16.25s-7.311-16.25-16.32-16.25c-9.009 0-16.32 7.28-16.32 16.25s7.311 16.25 16.32 16.25zM557.232 64.502h248.525v132.632c0 46.966-28.346 88.484-72.216 105.773l-25.653 10.109-150.656-248.514zM511.998 794.125c-35.995 0-65.28-29.159-65.28-65s29.285-65 65.28-65c35.995 0 65.28 29.159 65.28 65s-29.285 65-65.28 65zM511.998 696.625c-17.998 0-32.64 14.579-32.64 32.5s14.641 32.5 32.64 32.5c17.998 0 32.64-14.579 32.64-32.5s-14.642-32.5-32.64-32.5zM756.797 134.376c9.012 0 16.32-7.275 16.32-16.25s-7.308-16.25-16.32-16.25h-32.64c-9.012 0-16.32 7.275-16.32 16.25s7.308 16.25 16.32 16.25h32.64z" />
<glyph unicode="&#xe938;" glyph-name="security_guard" data-tags="security_guard" d="M812.985 279.351c16.625-24.349 25.412-52.778 25.415-82.217v-148.882c0-8.975-7.308-16.25-16.32-16.25h-293.738c-0.013 0-0.024-0.002-0.038-0.002-0.011 0-0.024 0.002-0.036 0.002h-32.537c-0.011 0-0.024-0.002-0.036-0.002s-0.024 0.002-0.038 0.002h-293.738c-9.012 0-16.32 7.275-16.32 16.25v148.898c0 29.432 8.782 57.858 25.4 82.2 16.619 24.346 39.933 42.942 67.424 53.776l119.728 47.19c-31.295 30.316-49.355 72.117-49.355 116.434 0 17.53 2.747 34.593 8.18 50.929-4.986 2.858-8.18 8.18-8.18 14.071v49.792l-28.483 56.724-27.775 13.827c-5.529 2.753-9.022 8.378-9.022 14.534v48.75c0 6.994 4.495 13.205 11.16 15.416l46.411 15.403 112.099 84.51c2.835 2.137 6.293 3.294 9.851 3.294h97.92c3.556 0 7.016-1.157 9.851-3.294l112.099-84.511 46.411-15.403c6.665-2.213 11.16-8.422 11.16-15.416v-48.752c0-6.154-3.491-11.781-9.022-14.534l-27.775-13.827-28.483-56.724v-49.788c0-5.891-3.197-11.214-8.181-14.071 5.43-16.341 8.181-33.407 8.181-50.929 0-44.319-18.061-86.122-49.368-116.447l119.718-47.175c27.496-10.837 50.815-29.432 67.437-53.778zM677.113 325.143l-81.435 32.089c-10.946-6.534-22.564-11.716-34.721-15.511v-23.72c0-17.085-8.88-32.134-22.278-40.843l28.806-38.246c6.311-8.364 9.792-18.756 9.792-29.25v-49.205l99.836 164.685zM347.075 687.642l28.129-56.017h273.586l28.127 56.017c1.58 3.144 4.14 5.694 7.3 7.267l23.618 11.758v26.994l-37.8 12.547c-1.687 0.561-3.272 1.391-4.69 2.46l-109.869 82.831h-86.958l-109.871-82.831c-1.418-1.069-3.003-1.9-4.69-2.46l-37.8-12.547v-26.994l23.618-11.758c3.16-1.571 5.72-4.123 7.3-7.267zM381.438 599.126v-23.501c1.704-0.224 3.399-0.708 5.028-1.5 2.061-1.003 3.811-2.384 5.214-4.014l31.522-10.387c14.28-4.693 29.001-8.276 43.741-10.645 14.77-2.374 29.867-3.578 44.873-3.578 29.947 0 59.574 4.724 88.062 14.042l42.678 13.977v25.607h-261.119zM381.438 496.751c0-43.322 21.565-83.652 57.688-107.882 13.394-8.998 28.141-15.355 43.844-18.9 18.912-4.275 39.152-4.275 58.057 0 15.615 3.526 30.265 9.825 43.56 18.712 0.245 0.171 0.488 0.343 0.741 0.5 35.848 24.277 57.232 64.439 57.232 107.568 0 13.923-2.167 27.474-6.44 40.443l-26.047-8.526c-31.786-10.397-64.842-15.667-98.254-15.667-16.744 0-33.593 1.344-50.076 3.994-16.442 2.644-32.854 6.638-48.782 11.872l-25.090 8.27c-4.263-12.95-6.432-26.478-6.432-40.384zM528.318 335.072c-5.413-0.536-10.861-0.821-16.32-0.821s-10.907 0.284-16.32 0.821v-17.071c0-4.335 1.699-8.416 4.785-11.487 3.083-3.071 7.181-4.763 11.535-4.763 8.997 0 16.32 7.29 16.32 16.25v17.071zM428.301 357.248l-81.419-32.092 99.836-164.705v49.211c0 10.494 3.481 20.886 9.8 29.261l28.78 38.212c-2.82 1.836-5.475 3.968-7.915 6.396-9.252 9.212-14.345 21.453-14.345 34.469v23.722c-12.153 3.794-23.777 8.981-34.737 15.525zM218.238 64.502h248.522l-150.651 248.525-25.673-10.119c-43.858-17.285-72.198-58.797-72.198-105.758v-132.648zM544.636 106.617v103.046c0 3.499-1.155 6.957-3.256 9.739l-29.384 39.015-29.376-39.003c-2.109-2.793-3.264-6.251-3.264-9.75v-103.057l25.531-42.104h14.22l25.529 42.115zM658.877 134.376c9.009 0 16.32-7.28 16.32-16.25s-7.311-16.25-16.32-16.25c-9.009 0-16.32 7.28-16.32 16.25s7.311 16.25 16.32 16.25zM557.232 64.502h248.525v132.632c0 46.966-28.346 88.484-72.216 105.773l-25.653 10.109-150.656-248.514zM511.998 794.125c35.995 0 65.28-29.159 65.28-65s-29.285-65-65.28-65c-35.995 0-65.28 29.159-65.28 65s29.285 65 65.28 65zM511.998 696.625c17.998 0 32.64 14.579 32.64 32.5s-14.642 32.5-32.64 32.5c-17.999 0-32.64-14.579-32.64-32.5s14.642-32.5 32.64-32.5zM756.797 134.376c9.012 0 16.32-7.275 16.32-16.25s-7.308-16.25-16.32-16.25h-32.64c-9.012 0-16.32 7.275-16.32 16.25s7.308 16.25 16.32 16.25h32.64z" />
<glyph unicode="&#xe939;" glyph-name="send" data-tags="send" d="M906.639 527.915l-722.915 299.968c-30.455 12.638-64.862 7.079-89.791-14.502-24.929-21.584-35.355-54.841-27.207-86.791l64.346-252.336h315.046c14.497 0 26.252-11.753 26.252-26.252 0-14.497-11.753-26.252-26.252-26.252h-315.046l-64.346-252.334c-8.148-31.952 2.277-65.208 27.207-86.791 24.979-21.625 59.39-27.116 89.792-14.502l722.914 299.966c32.914 13.657 53.359 44.279 53.359 79.914s-20.445 66.258-53.361 79.914z" />
<glyph unicode="&#xe93a;" glyph-name="television-fill" data-tags="television-fill" d="M892.308 679.825c37.344-0.103 67.588-30.301 67.692-67.582v-429.461c-0.104-37.281-30.351-67.479-67.692-67.582h-760.616c-37.341 0.103-67.588 30.301-67.692 67.582v429.179c0.104 37.281 30.351 67.479 67.692 67.582h330.834l-94.147 84.595c-4.536 4.831-4.936 12.222-0.946 17.514 4.533 6.016 13.094 7.221 19.117 2.695l108.458-97.566 103.656 152.083c4.237 6.204 12.71 7.802 18.924 3.572s7.814-12.689 3.578-18.893l-97.913-143.718h369.057zM686.502 622.864c31.198 0 56.488-25.249 56.488-56.397v-338.38c0-31.147-25.29-56.397-56.488-56.397h-508.396c-31.198 0-56.488 25.249-56.488 56.397v338.38c0 31.147 25.29 56.397 56.488 56.397h508.396zM932.697 182.782l0.094 429.461c-0.052 22.3-18.147 40.366-40.483 40.418h-760.616c-22.336-0.052-40.432-18.117-40.483-40.418v-429.461c0.052-22.3 18.147-40.366 40.483-40.418h760.522c22.336 0.052 40.432 18.117 40.483 40.418zM874.044 568.723c18.877-20.987 18.563-52.893-0.72-73.506-20.548-21.967-55.043-23.144-77.045-2.629-0.016 0.016-0.035 0.035-0.054 0.054-21.237 21.233-21.211 55.633 0.054 76.833 0.016 0.016 0.035 0.035 0.054 0.054 21.268 21.203 55.723 21.177 76.958-0.054l0.753-0.752zM854.461 511.763l-0.094 0.282c10.203 10.377 10.45 26.92 0.565 37.598l-0.565 0.564c-10.243 8.817-25.408 8.817-35.651 0-11.422-9.829-12.7-27.040-2.855-38.444 10.662-10.638 27.938-10.638 38.6 0zM863.687 432.337c7.664-7.646 11.973-18.019 11.978-28.835 0.012-22.528-18.272-40.803-40.839-40.815-22.565-0.012-40.869 18.242-40.881 40.772-0.012 22.528 18.272 40.803 40.839 40.815 10.841 0.016 21.242-4.279 28.903-11.937zM844.387 393.894c2.403 2.505 3.752 5.837 3.766 9.305 0.054 3.701-1.405 7.268-4.039 9.874-5.355 5.299-13.997 5.261-19.305-0.085s-5.27-13.975 0.085-19.274c5.355-5.299 13.997-5.261 19.305 0.085l0.188 0.094z" />
<glyph unicode="&#xe93b;" glyph-name="television" data-tags="television" d="M686.502 622.864h-508.396c-31.198 0-56.488-25.249-56.488-56.397v-338.38c0-31.147 25.29-56.397 56.488-56.397h508.396c31.198 0 56.488 25.249 56.488 56.397v338.38c0 31.147-25.29 56.397-56.488 56.397zM892.308 679.825c37.344-0.103 67.588-30.301 67.692-67.582v-429.461c-0.104-37.281-30.351-67.479-67.692-67.582h-760.616c-37.341 0.103-67.588 30.301-67.692 67.582v429.179c0.104 37.281 30.351 67.479 67.692 67.582h330.834l-94.147 84.595c-4.536 4.831-4.936 12.222-0.946 17.514 4.533 6.016 13.094 7.221 19.117 2.695l108.458-97.566 103.656 152.083c4.237 6.204 12.71 7.802 18.924 3.572s7.814-12.689 3.578-18.893l-97.913-143.718h369.057zM715.499 228.087c-0.052-15.967-13.004-28.899-28.997-28.95h-508.396c-15.993 0.052-28.946 12.983-28.997 28.95v338.38c0.052 15.967 13.004 28.899 28.997 28.95h508.396c15.993-0.052 28.946-12.983 28.997-28.95v-338.38zM932.697 182.782l0.094 429.461c-0.052 22.3-18.147 40.366-40.483 40.418h-760.616c-22.336-0.052-40.432-18.117-40.483-40.418v-429.461c0.052-22.3 18.147-40.366 40.483-40.418h760.522c22.336 0.052 40.432 18.117 40.483 40.418zM874.044 568.723c18.877-20.987 18.563-52.893-0.72-73.506-20.548-21.967-55.043-23.144-77.045-2.629-0.016 0.016-0.035 0.035-0.054 0.054-21.237 21.233-21.211 55.633 0.054 76.833 0.016 0.016 0.035 0.035 0.054 0.054 21.268 21.203 55.723 21.177 76.958-0.054l0.753-0.752zM854.461 511.763l-0.094 0.282c10.203 10.377 10.45 26.92 0.565 37.598l-0.565 0.564c-10.243 8.817-25.408 8.817-35.651 0-11.422-9.829-12.7-27.040-2.855-38.444 10.662-10.638 27.938-10.638 38.6 0zM863.687 432.337c7.664-7.646 11.973-18.019 11.978-28.835 0.012-22.528-18.272-40.803-40.839-40.815-22.565-0.012-40.869 18.242-40.881 40.772-0.012 22.528 18.272 40.803 40.839 40.815 10.841 0.016 21.242-4.279 28.903-11.937zM844.387 393.894c2.403 2.505 3.752 5.837 3.766 9.305 0.054 3.701-1.405 7.268-4.039 9.874-5.355 5.299-13.997 5.261-19.305-0.085s-5.27-13.975 0.085-19.274c5.355-5.299 13.997-5.261 19.305 0.085l0.188 0.094z" />
<glyph unicode="&#xe93c;" glyph-name="time" data-tags="time" d="M894.791 610.029c22.097-51.52 33.209-105.139 33.209-161.571 0-56.444-11.122-110.518-33.208-162.039-43.874-102.313-118.415-177.195-221.535-221.201-51.532-21.983-105.538-33.217-161.941-33.217s-109.991 11.117-161.484 33.217c-102.257 43.899-177.137 118.714-221.080 221.201-22.019 51.357-32.753 105.596-32.753 162.039 0 56.433 10.733 110.226 32.753 161.571 43.942 102.487 118.813 176.856 221.080 220.744 51.483 22.1 105.082 33.228 161.484 33.228 56.412 0 110.409-11.234 161.949-33.228 103.12-44.005 177.661-118.421 221.525-220.744zM512 67.2c210.31 0 380.8 170.49 380.8 380.8s-170.49 380.8-380.8 380.8c-210.31 0-380.8-170.49-380.8-380.8s170.49-380.8 380.8-380.8zM537.702 452.097l127.373-128.355c9.772-9.847 10.46-25.034 0-35.5-9.095-9.107-25.923-9.107-35.024 0l-136.020 136.085c-5.454 5.467-7.735 12.294-6.823 20.488 0 1.36-0.912 3.186-0.912 3.643v239.406c0 14.108 11.83 25.488 25.018 25.488 14.102 0 26.387-11.38 26.387-25.488v-235.766z" />
<glyph unicode="&#xe93d;" glyph-name="toilet-fill" data-tags="toilet-fill" d="M852.364 492.8h-393.319v316.348c23.586 8.2 35.972 33.723 27.663 57.006-6.391 17.913-23.552 29.882-42.79 29.846h-302.553c-25.006 0.047-45.317-19.927-45.364-44.611-0.036-18.991 12.089-35.931 30.234-42.241v-361.148c0-24.743 20.318-44.8 45.383-44.8h45.383v-134.4c0.083-74.193 60.991-134.318 136.149-134.4v-119.467c0-8.247 6.773-14.933 15.128-14.933h272.298c8.354 0 15.128 6.686 15.128 14.933v120.228c135.771 7.95 241.817 118.843 242.042 253.105v14.933h15.128c8.354 0 15.128 6.686 15.128 14.933-0.049 41.216-33.884 74.618-75.636 74.667zM171.619 433.067c-8.354 0-15.128 6.686-15.128 14.933v358.4h272.298v-373.333h-257.17zM867.491 388.267c-0.142-123.654-101.652-223.86-226.915-224h-287.425c-58.451 0.075-105.818 46.833-105.894 104.533v134.4h620.234v-14.933z" />
<glyph unicode="&#xe93e;" glyph-name="toilet" data-tags="toilet" d="M852.364 492.8h-393.319v316.348c23.586 8.2 35.972 33.723 27.663 57.006-6.391 17.913-23.552 29.882-42.79 29.846h-302.553c-25.006 0.047-45.317-19.927-45.364-44.611-0.036-18.991 12.089-35.931 30.234-42.241v-361.148c0-24.743 20.318-44.8 45.383-44.8h45.383v-134.4c0.083-74.193 60.991-134.318 136.149-134.4v-119.467c0-8.247 6.773-14.933 15.128-14.933h272.298c8.354 0 15.128 6.686 15.128 14.933v120.228c135.771 7.95 241.817 118.843 242.042 253.105v14.933h15.128c8.354 0 15.128 6.686 15.128 14.933-0.049 41.216-33.884 74.618-75.636 74.667zM126.236 851.2c0 8.247 6.773 14.933 15.128 14.933h302.553c8.354 0 15.128-6.686 15.128-14.933s-6.773-14.933-15.128-14.933h-302.553c-8.356 0-15.128 6.686-15.128 14.933zM171.619 433.067c-8.354 0-15.128 6.686-15.128 14.933v358.4h272.298v-373.333h-257.17zM625.449 29.867h-242.042v104.533h242.042v-104.533zM867.491 388.267c-0.142-123.654-101.652-223.86-226.915-224h-287.425c-58.451 0.075-105.818 46.833-105.894 104.533v134.4h620.234v-14.933zM459.045 433.067v29.867h393.319c19.227-0.022 36.361-11.98 42.796-29.867h-436.115z" />
<glyph unicode="&#xe93f;" glyph-name="trash-fill" data-tags="trash-fill" d="M340.961 766.513c0.67 12.673 0.541 24.458 2.163 36.027 2.984 21.772 14.663 38.367 33.045 50.152 12.803 8.189 27.054 11.309 42.171 11.309 62.37-0.087 124.725-0.087 187.066 0 25.605 0 46.648-9.272 62.283-29.853 10.208-13.41 14.295-28.9 14.511-45.494 0-7.171 0-14.32 0-22.097h7.158c37.125 0 74.25 0 111.375 0 13.74 0.197 27.295-3.185 39.338-9.814 27.379-15.316 42.603-50.26 34.602-80.676-6.25-23.679-20.545-40.533-43.252-50-3.115-0.922-5.236-3.809-5.19-7.062-4.729-58.81-9.573-117.62-14.533-176.43-5.767-68.515-11.534-137.031-17.301-205.546-3.777-45.321-7.504-90.641-11.181-135.962-3.352-41.356-37.521-69.194-76.751-69.064-129.757 0.455-259.514 0.173-389.27 0.173-35.488 0-61.851 18.393-73.356 51.993-2.274 7.608-3.617 15.465-4.001 23.397-3.633 42.418-6.899 84.901-10.402 127.34-4.044 48.917-8.261 97.834-12.327 146.751-2.92 35.052-5.709 70.147-8.65 105.221-3.676 44.411-7.483 88.822-11.008 133.254-0.324 4.094-2.855 4.918-5.644 6.153-26.514 11.807-41.63 32.322-44.355 61.417-2.825 34.020 18.534 65.368 51.189 75.13 8.143 2.265 16.549 3.438 25 3.488 36.937 0.368 73.875 0.195 110.834 0.195h6.488zM633.562 766.794c0 7.322 0 13.973 0 20.624 0 18.154-9.689 27.838-27.638 27.838h-143.814c-15.679 0-31.358 0-47.015 0-10.51-0.108-19.766-6.066-22.902-15.165-3.72-10.832-1.341-21.967-1.795-33.232l243.164-0.065zM511.656 669.025h285.984c2.703 0 5.407 0 8.088 0.13 7.292 0.573 13.933 4.423 18.063 10.471s5.305 13.644 3.195 20.66c-3.482 11.547-12.5 17.461-26.643 17.461h-573.568c-2.876 0-5.774 0-8.65-0.13-7.302-0.61-13.938-4.489-18.061-10.557s-5.289-13.676-3.176-20.704c3.439-11.374 12.413-17.331 26.124-17.331h288.644zM536.245 350.394l-0.043 0.043v111.504c0 27.968 0.151 55.936 0 83.904-0.087 16.010-12.651 27.448-27.552 25.477-12.868-1.711-21.042-12.11-21.042-27.101 0-129.015 0-258.023 0-387.024-0.040-1.982 0.039-3.964 0.238-5.936 0.868-8.243 5.894-15.464 13.314-19.13s16.199-3.265 23.256 1.062c8.586 5.308 11.829 13.475 11.829 23.419 0 64.587 0 129.181 0 193.783zM682.005 541.512l1.060 0.152c-1.146 5.394-1.449 11.114-3.612 16.075-4.532 9.918-15.274 15.414-25.951 13.28-11.074-1.978-19.311-11.362-19.853-22.617-0.887-12.045-1.427-24.134-2.163-36.2-3.633-58.463-7.288-116.956-10.964-175.477-2.552-39.963-5.068-79.94-7.548-119.931-1.276-20.884-2.811-41.768-3.547-62.673-0.186-6.325 2.146-12.464 6.483-17.064s10.322-7.284 16.636-7.46c13.268-0.543 24.524 9.663 25.303 22.942 1.708 25.932 3.244 51.798 4.823 77.795 2.883 47.184 5.767 94.368 8.65 141.551 3.547 56.543 7.108 113.085 10.683 169.628zM414.598 154.358c-2.444 40.23-4.65 77.383-7.158 114.45-3.576 58.333-7.18 116.674-10.813 175.022-2.163 34.749-4.152 69.584-6.488 104.246-0.305 3.786-1.372 7.47-3.136 10.832-5.272 9.677-16.424 14.541-27.087 11.811s-18.12-12.355-18.111-23.38c0.043-8.99 0.887-18.003 1.427-27.015 2.336-38.518 4.693-77.051 7.072-115.598 3.056-48.816 6.070-97.624 9.040-146.426 2.292-35.464 4.239-70.949 6.618-106.413 0.553-6.565 3.738-12.624 8.828-16.796s11.65-6.1 18.183-5.344c12.555 1.215 22.015 11.981 21.626 24.61z" />
<glyph unicode="&#xe940;" glyph-name="trash" data-tags="trash" d="M340.961 766.513c0.67 12.673 0.541 24.458 2.163 36.027 2.984 21.772 14.663 38.367 33.045 50.152 12.803 8.189 27.054 11.309 42.171 11.309 62.37-0.087 124.725-0.087 187.066 0 25.605 0 46.648-9.272 62.283-29.853 10.208-13.41 14.295-28.9 14.511-45.494 0-7.171 0-14.32 0-22.097h7.158c37.125 0 74.25 0 111.375 0 13.74 0.197 27.295-3.185 39.338-9.814 27.379-15.316 42.603-50.26 34.602-80.676-6.25-23.679-20.545-40.533-43.252-50-3.115-0.922-5.236-3.809-5.19-7.062-4.729-58.81-9.573-117.62-14.533-176.43-5.767-68.515-11.534-137.031-17.301-205.546-3.777-45.321-7.504-90.641-11.181-135.962-3.352-41.356-37.521-69.194-76.751-69.064-129.757 0.455-259.514 0.173-389.27 0.173-35.488 0-61.851 18.393-73.356 51.993-2.274 7.608-3.617 15.465-4.001 23.397-3.633 42.418-6.899 84.901-10.402 127.34-4.044 48.917-8.261 97.834-12.327 146.751-2.92 35.052-5.709 70.147-8.65 105.221-3.676 44.411-7.483 88.822-11.008 133.254-0.324 4.094-2.855 4.918-5.644 6.153-26.514 11.807-41.63 32.322-44.355 61.417-2.825 34.020 18.534 65.368 51.189 75.13 8.143 2.265 16.549 3.438 25 3.488 36.937 0.368 73.875 0.195 110.834 0.195h6.488zM777.333 620.282h-109.493c-138.407 0-276.815 0-415.222 0-5.363 0-6.185-1.69-5.709-6.499 1.946-20.841 3.547-41.725 5.255-62.587 3.46-42.613 6.834-85.247 10.359-127.817 4.614-55.734 9.278-111.475 13.992-167.223 4.022-48.744 7.915-97.487 11.959-146.231 0.189-4.143 0.857-8.251 1.99-12.24 3.525-10.832 12.803-16.746 25.627-16.746h288.19c34.948 0 69.917 0 104.865 0 13.884 0 23.637 8.666 25.367 22.357 0.865 6.802 1.211 13.648 1.773 20.494 2.999 35.789 6.005 71.57 9.018 107.344 3.503 42.461 6.971 84.908 10.402 127.34 3.59 43.515 7.194 87.038 10.813 130.568 2.552 30.329 5.104 60.717 7.656 91.161 1.146 12.998 2.098 25.997 3.157 40.035v0.043zM633.562 766.794c0 7.322 0 13.973 0 20.624 0 18.154-9.689 27.838-27.638 27.838h-143.814c-15.679 0-31.358 0-47.015 0-10.51-0.108-19.766-6.066-22.902-15.165-3.72-10.832-1.341-21.967-1.795-33.232l243.164-0.065zM511.656 669.025h285.984c2.703 0 5.407 0 8.088 0.13 7.292 0.573 13.933 4.423 18.063 10.471s5.305 13.644 3.195 20.66c-3.482 11.547-12.5 17.461-26.643 17.461h-573.568c-2.876 0-5.774 0-8.65-0.13-7.302-0.61-13.938-4.489-18.061-10.557s-5.289-13.676-3.176-20.704c3.439-11.374 12.413-17.331 26.124-17.331h288.644zM536.245 350.394c0-64.602 0-129.196 0-193.783 0-9.944-3.244-18.111-11.829-23.419-7.057-4.327-15.835-4.728-23.256-1.062s-12.446 10.887-13.314 19.13c-0.199 1.972-0.278 3.954-0.238 5.936 0 129.001 0 258.009 0 387.024 0 14.991 8.175 25.39 21.042 27.101 14.9 1.971 27.465-9.467 27.552-25.477 0.151-27.968 0-55.936 0-83.904v-111.504l0.043-0.043zM682.005 541.512c-3.576-56.543-7.137-113.085-10.683-169.628-2.883-47.184-5.767-94.368-8.65-141.551-1.579-25.997-3.114-51.863-4.823-77.795-0.779-13.279-12.035-23.485-25.303-22.942-6.314 0.176-12.299 2.859-16.636 7.46s-6.669 10.739-6.483 17.064c0.735 20.906 2.271 41.79 3.547 62.673 2.48 39.991 4.996 79.968 7.548 119.931 3.676 58.521 7.331 117.014 10.964 175.477 0.735 12.067 1.276 24.155 2.163 36.2 0.542 11.255 8.779 20.639 19.853 22.617 10.678 2.135 21.42-3.362 25.951-13.28 2.163-4.961 2.465-10.68 3.612-16.075l-1.060-0.152zM414.598 154.358c0.389-12.63-9.071-23.395-21.626-24.61-6.533-0.756-13.093 1.172-18.183 5.344s-8.275 10.232-8.828 16.796c-2.379 35.464-4.325 70.949-6.618 106.413-2.97 48.801-5.983 97.61-9.040 146.426-2.379 38.547-4.736 77.080-7.072 115.598-0.541 9.012-1.384 18.024-1.427 27.015-0.008 11.025 7.449 20.651 18.111 23.38s21.816-2.134 27.087-11.811c1.764-3.362 2.83-7.046 3.136-10.832 2.336-34.662 4.325-69.498 6.488-104.246 3.633-58.348 7.238-116.689 10.813-175.022 2.509-37.067 4.714-74.22 7.158-114.45z" />
<glyph unicode="&#xe941;" glyph-name="upload" data-tags="upload" d="M752.602 616.13c82.754-21.613 143.24-99.766 143.398-187.629 0-48.552-18.162-95.224-51.484-131.56-33.481-36.649-78.49-58.575-126.658-62.021-0.632 0-1.105 0-1.579 0h-117.182c-11.845 0-21.32 9.397-21.32 21.143s9.476 21.143 21.32 21.143h116.392c76.121 5.795 137.87 73.454 137.87 151.293 0 73.454-53.064 137.824-123.341 149.727-9.476 1.566-16.74 9.24-17.688 18.794-8.844 91.778-85.754 161.004-178.932 161.004-69.33 0-133.133-40.094-162.665-102.272-4.738-9.867-16.267-14.566-26.69-10.807-8.528 3.132-17.688 4.699-27.006 4.699-43.588 0-79.122-35.239-79.122-78.466 0-9.554 1.579-18.481 4.738-26.938 3.474-9.71-0.316-20.517-9.318-25.685-38.692-22.396-62.697-63.744-62.697-108.067 0-68.599 54.327-129.523 118.919-133.439h135.186c11.845 0 21.32-9.397 21.32-21.143s-9.476-21.143-21.32-21.143h-135.817c-0.474 0-0.79 0-1.263 0-42.956 2.349-83.228 22.553-113.708 56.696-29.69 33.36-45.957 75.49-45.957 118.873 0 53.72 26.374 104.151 69.804 135.475-1.579 8.144-2.527 16.445-2.527 25.059 0 66.563 54.643 120.753 121.762 120.753 7.896 0 15.793-0.783 23.373-2.193 17.53 30.384 42.324 56.226 72.173 75.333 35.849 23.023 77.7 35.239 120.656 35.239 55.59 0 108.97-20.517 150.031-57.792 36.955-33.516 61.118-77.683 69.33-126.078zM640 390.286c-8.37-8.301-21.794-8.301-30.006 0l-76.595 75.96v-349.103c0-11.746-9.476-21.143-21.32-21.143s-21.32 9.397-21.32 21.143v349.103l-76.595-75.96c-4.106-4.229-9.634-6.265-15.003-6.265s-10.897 2.193-15.003 6.265c-8.37 8.301-8.37 21.613 0 29.914l112.918 111.982c3.948 4.072 9.476 6.265 15.003 6.265s11.055-2.349 15.003-6.265l112.918-111.982c8.37-8.301 8.37-21.613 0-29.914z" />
<glyph unicode="&#xe942;" glyph-name="wash-fill" data-tags="wash-fill" d="M268.88 747.338h59.032c14.317 0 25.963 11.648 25.963 25.963v23.392c0 14.317-11.648 25.963-25.963 25.963h-59.032c-14.317 0-25.963-11.648-25.963-25.963v-23.392c0-14.317 11.648-25.963 25.963-25.963zM832.954 896c46.352 0 84.058-37.71 84.058-84.061v-727.182c0-46.35-37.708-84.060-84.060-84.060h-620.459c-46.35 0-84.060 37.708-84.060 84.060v727.183c0 46.35 37.708 84.060 84.060 84.060h620.461zM265.6 796.693v-23.392c0-1.777 1.503-3.28 3.28-3.28h59.032c1.777 0 3.28 1.503 3.28 3.28v23.392c0 1.777-1.503 3.28-3.28 3.28h-59.032c-1.777 0-3.28-1.503-3.28-3.28zM631.231 742.423c23.474 0 42.569 19.1 42.569 42.573 0 23.476-19.096 42.573-42.569 42.573-23.477 0-42.577-19.1-42.577-42.573s19.1-42.573 42.577-42.573zM631.231 804.886c10.966 0 19.886-8.922 19.886-19.89s-8.92-19.89-19.886-19.89c-10.969 0-19.893 8.922-19.893 19.89s8.924 19.89 19.893 19.89zM759.973 742.423c23.466 0 42.558 19.1 42.558 42.573 0 23.476-19.092 42.573-42.558 42.573-23.485 0-42.586-19.1-42.586-42.573s19.101-42.573 42.586-42.573zM759.973 804.886c10.958 0 19.875-8.922 19.875-19.89s-8.917-19.89-19.875-19.89c-10.977 0-19.903 8.922-19.903 19.89s8.928 19.89 19.903 19.89zM832.954 35.2c27.846 0 56.643 25.6 56.646 49.557v590.443h-732.8v-590.443c0-27.157 32-49.557 55.692-49.557h620.461zM745.559 418.326c0.144-0.497 0.244-1.009 0.316-1.533 2.966-14.633 4.527-29.768 4.527-45.263 0-125.542-102.138-227.677-227.68-227.677-103.051 0-190.313 68.82-218.384 163.253-6.039 20.436-9.298 42.057-9.298 64.425 0 125.542 102.138 227.679 227.682 227.679 109.509 0 201.199-77.714 222.837-180.884zM522.724 576.527c-113.036 0-204.999-91.959-204.999-204.993 0-18.325 2.431-36.095 6.964-53.010 34.076-13.986 63.38-21.094 87.135-21.094 61.472 0 99.704 30.585 140.175 62.964 41.745 33.398 84.91 67.932 154.339 67.932 4.384 0 8.873-0.153 13.502-0.431-24.544 85.714-103.618 148.632-197.116 148.632z" />
<glyph unicode="&#xe943;" glyph-name="wash" data-tags="wash" d="M268.88 747.338h59.032c14.317 0 25.963 11.648 25.963 25.963v23.392c0 14.317-11.648 25.963-25.963 25.963h-59.032c-14.317 0-25.963-11.648-25.963-25.963v-23.392c0-14.317 11.648-25.963 25.963-25.963zM832.954 896c46.352 0 84.058-37.71 84.058-84.061v-727.182c0-46.35-37.708-84.060-84.060-84.060h-620.459c-46.35 0-84.060 37.708-84.060 84.060v727.183c0 46.35 37.708 84.060 84.060 84.060h620.461zM265.6 796.693c0 1.777 1.503 3.28 3.28 3.28h59.032c1.777 0 3.28-1.503 3.28-3.28v-23.392c0-1.777-1.503-3.28-3.28-3.28h-59.032c-1.777 0-3.28 1.503-3.28 3.28v23.392zM631.231 742.423c-23.477 0-42.577 19.1-42.577 42.573s19.1 42.573 42.577 42.573c23.474 0 42.569-19.098 42.569-42.573 0-23.474-19.096-42.573-42.569-42.573zM631.231 804.886c-10.969 0-19.893-8.922-19.893-19.89s8.924-19.89 19.893-19.89c10.966 0 19.886 8.922 19.886 19.89s-8.92 19.89-19.886 19.89zM759.973 742.423c-23.485 0-42.586 19.1-42.586 42.573s19.101 42.573 42.586 42.573c23.466 0 42.558-19.098 42.558-42.573 0-23.474-19.092-42.573-42.558-42.573zM759.973 804.886c-10.975 0-19.903-8.922-19.903-19.89s8.926-19.89 19.903-19.89c10.958 0 19.875 8.922 19.875 19.89s-8.917 19.89-19.875 19.89zM212.492 867.2c-33.844 0-55.692-21.418-55.692-55.261v-108.643h732.8v108.645c0 26.46-28.8 55.26-56.648 55.26h-620.459zM832.954 35.2c27.846 0 56.643 25.6 56.646 49.557v590.443h-732.8v-590.443c0-27.157 32-49.557 55.692-49.557h620.461zM745.559 418.326c0.144-0.497 0.244-1.009 0.316-1.533 2.966-14.633 4.527-29.768 4.527-45.263 0-125.542-102.138-227.677-227.68-227.677-103.051 0-190.313 68.82-218.384 163.253-6.039 20.436-9.298 42.057-9.298 64.425 0 125.542 102.138 227.679 227.682 227.679 109.509 0 201.199-77.714 222.837-180.884zM522.724 576.527c-113.036 0-204.999-91.959-204.999-204.993 0-18.325 2.431-36.095 6.964-53.010 34.076-13.986 63.38-21.094 87.135-21.094 61.472 0 99.704 30.585 140.175 62.964 41.745 33.398 84.91 67.932 154.339 67.932 4.384 0 8.873-0.153 13.502-0.431-24.544 85.714-103.618 148.632-197.116 148.632zM522.724 166.539c113.036 0 204.997 91.959 204.995 204.997 0 11.31-0.934 22.404-2.707 33.222-6.569 0.584-12.744 0.885-18.674 0.885-61.467 0-99.694-30.583-140.165-62.962-41.749-33.398-84.92-67.933-154.348-67.933-22.173 0-48.133 5.298-77.381 15.739 31.477-72.841 104.017-123.947 188.281-123.947z" />
</font>
</defs>
</svg>
